<?xml version="1.0" encoding="UTF-8" standalone="no"?>
<svg
   height="86.112366"
   width="95.680412"
   version="1.1"
   id="svg4"
   xmlns:xlink="http://www.w3.org/1999/xlink"
   xmlns="http://www.w3.org/2000/svg"
   xmlns:svg="http://www.w3.org/2000/svg">
  <defs
     id="defs8">
    <linearGradient
       xlink:href="#linearGradient3115"
       id="linearGradient919"
       x1="3.2407508"
       y1="82.017288"
       x2="92.217026"
       y2="43.056187"
       gradientUnits="userSpaceOnUse" />
    <linearGradient
       id="linearGradient3115">
      <stop
         style="stop-color:#460ff2;stop-opacity:1;"
         offset="0"
         id="stop3117" />
      <stop
         style="stop-color:#125aef;stop-opacity:1;"
         offset="0.40058482"
         id="stop3111" />
      <stop
         style="stop-color:#07c7f2;stop-opacity:1;"
         offset="1"
         id="stop3113" />
    </linearGradient>
  </defs>
  <path
     d="M 81.929674,81.389573 70.331186,70.257403 H 24.441519 q -8.875364,0 -14.9267486,-5.711288 -6.0513847,-5.711286 -6.0513847,-14.229818 0,-7.744118 5.0932488,-12.971399 5.0932485,-5.227279 12.7583355,-6.388897 0.201713,-1.355221 0.655567,-3.049247 0.453854,-1.694026 1.260706,-3.049246 L 6.4890781,8.7884616 10.725047,4.7227986 86.2665,77.227109 Z M 24.441519,64.449314 H 64.481514 L 28.173207,29.60078 q -1.109421,1.452022 -1.462418,3.29125 -0.352998,1.839228 -0.352998,3.581656 h -1.916272 q -6.253098,0 -10.589923,3.823658 -4.3368256,3.823658 -4.3368256,9.728548 0,6.001693 4.3368256,10.212557 4.336825,4.210865 10.589923,4.210865 z M 46.226504,46.928246 Z m 39.334001,20.32831 -4.740252,-4.549669 q 2.52141,-1.645624 3.9334,-3.678456 1.41199,-2.032831 1.41199,-4.840074 0,-4.162465 -3.126549,-7.114909 -3.126548,-2.952446 -7.463374,-2.952446 h -6.75738 v -7.84092 q 0,-8.51853 -6.152242,-14.278219 -6.15224,-5.759688 -15.027604,-5.759688 -2.82398,0 -6.101813,0.871214 -3.277834,0.871213 -6.000957,2.807243 l -4.235969,-4.065663 q 3.63083,-2.807243 7.816372,-4.114063 4.185541,-1.30682 8.522367,-1.30682 11.195062,0 19.213146,7.647318 8.018084,7.647316 8.018084,18.392282 v 2.03283 q 7.261662,-0.0968 12.304483,4.356067 5.04282,4.452869 5.04282,11.325774 0,3.388052 -1.664131,7.114909 -1.66413,3.726856 -4.992391,5.95329 z M 58.228417,41.31376 Z"
     id="path2"
     style="fill:url(#linearGradient919);fill-opacity:1;stroke:#ffffff;stroke-width:1;stroke-dasharray:none;stroke-opacity:1" />
</svg>
