<?xml version="1.0" encoding="UTF-8" standalone="no"?>
<svg
   height="400"
   width="500"
   version="1.1"
   id="svg4"
   xmlns:xlink="http://www.w3.org/1999/xlink"
   xmlns="http://www.w3.org/2000/svg"
   xmlns:svg="http://www.w3.org/2000/svg">
  <defs
     id="defs8">
    <linearGradient
       id="linearGradient1167">
      <stop
         style="stop-color:#4002ff;stop-opacity:1;"
         offset="0.2631579"
         id="stop1163" />
      <stop
         style="stop-color:#0254ff;stop-opacity:1;"
         offset="0.6432749"
         id="stop4801" />
      <stop
         style="stop-color:#00d1ff;stop-opacity:1;"
         offset="1"
         id="stop1165" />
    </linearGradient>
    <linearGradient
       xlink:href="#linearGradient1167"
       id="linearGradient1169"
       x1="13.877934"
       y1="370.84946"
       x2="490.47827"
       y2="19.400568"
       gradientUnits="userSpaceOnUse"
       gradientTransform="translate(0,2)" />
  </defs>
  <path
     d="m 34.636299,382.23559 q -12.27452,0 -21.480409,-9.20589 Q 3.95,363.8238 3.95,351.54929 V 44.686299 Q 3.95,32.411779 13.15589,23.20589 22.361779,14 34.636299,14 H 464.75592 q 12.27451,0 21.48041,9.20589 9.20589,9.205889 9.20589,21.480409 V 351.54929 q 0,12.27451 -9.20589,21.48041 -9.2059,9.20589 -21.48041,9.20589 z M 305.6986,351.54929 H 464.75592 V 44.686299 H 34.636299 V 351.54929 h 5.114383 q 22.503286,-37.84644 57.281091,-57.28109 34.777807,-19.43466 75.692867,-19.43466 40.91507,0 75.43715,19.43466 34.52209,19.43465 57.53681,57.28109 z M 172.72464,233.91848 q 25.06048,0 42.7051,-17.64463 17.64463,-17.64462 17.64463,-42.7051 0,-25.06047 -17.64463,-42.7051 -17.64462,-17.64462 -42.7051,-17.64462 -25.06047,0 -42.7051,17.64462 -17.64462,17.64463 -17.64462,42.7051 0,25.06048 17.64462,42.7051 17.64463,17.64463 42.7051,17.64463 z M 291.88977,175.61451 H 428.95523 V 80.486981 H 291.88977 Z m 69.04417,-18.92322 -53.70102,-40.40362 V 95.83013 l 53.18958,40.40363 53.18959,-40.40363 v 20.45754 z M 78.619993,351.54929 H 266.82929 q -19.43466,-24.0376 -43.21654,-35.03353 -23.78187,-10.99593 -50.88811,-10.99593 -27.10623,0 -51.39955,10.74021 -24.293317,10.7402 -42.705097,35.28925 z M 172.72464,203.23218 q -12.27452,0 -20.96897,-8.69446 -8.69445,-8.69444 -8.69445,-20.96897 0,-12.27452 8.69445,-20.96897 8.69445,-8.69445 20.96897,-8.69445 12.27453,0 20.96897,8.69445 8.69446,8.69445 8.69446,20.96897 0,12.27453 -8.69446,20.96897 -8.69444,8.69446 -20.96897,8.69446 z m 77.22719,-5.11439 z"
     id="path2"
     style="fill:url(#linearGradient1169);fill-opacity:1;stroke:#000000;stroke-width:0;stroke-dasharray:none;stroke-opacity:1" />
</svg>
