<?xml version="1.0" encoding="UTF-8" standalone="no"?>
<!-- Created with Inkscape (http://www.inkscape.org/) -->

<svg
   version="1.1"
   id="svg2"
   width="608.0274"
   height="501.58795"
   viewBox="0 0 608.02741 501.58795"
   sodipodi:docname="2710476.ai"
   xmlns:inkscape="http://www.inkscape.org/namespaces/inkscape"
   xmlns:sodipodi="http://sodipodi.sourceforge.net/DTD/sodipodi-0.dtd"
   xmlns="http://www.w3.org/2000/svg"
   xmlns:svg="http://www.w3.org/2000/svg">
  <defs
     id="defs6">
    <clipPath
       clipPathUnits="userSpaceOnUse"
       id="clipPath20">
      <path
         d="M 0,500 H 500 V 0 H 0 Z"
         id="path18" />
    </clipPath>
    <clipPath
       clipPathUnits="userSpaceOnUse"
       id="clipPath158">
      <path
         d="m 303.568,381.668 h 13.515 V 371.48 h -13.515 z"
         id="path156" />
    </clipPath>
  </defs>
  <sodipodi:namedview
     id="namedview4"
     pagecolor="#ffffff"
     bordercolor="#111111"
     borderopacity="1"
     inkscape:showpageshadow="0"
     inkscape:pageopacity="0"
     inkscape:pagecheckerboard="1"
     inkscape:deskcolor="#d1d1d1"
     showgrid="false" />
  <g
     id="g10"
     inkscape:groupmode="layer"
     inkscape:label="Page 1"
     transform="matrix(1.3333333,0,0,-1.3333333,-29.319454,575.3649)">
    <g
       id="g14">
      <g
         id="g16"
         clip-path="url(#clipPath20)">
        <g
           id="g22"
           transform="translate(428.1973,72.3711)">
          <path
             d="m 0,0 c -22.722,17.264 -61.582,60.101 -10.407,127.347 63.284,83.158 -12.505,117.275 -85.151,113.714 -58.443,-2.865 -124.217,70.609 -189.83,57.478 -87.088,-17.431 -30.541,-92.426 -89.59,-132.831 C -425.336,131.249 -403.715,26.255 -338.175,0 Z"
             style="fill:#dcedf9;fill-opacity:1;fill-rule:nonzero;stroke:none"
             id="path24" />
        </g>
        <g
           id="g26"
           transform="translate(469.208,224.8682)">
          <path
             d="M 0,0 C -0.351,12.331 -11.838,17.114 -19.505,8.187 -23.904,3.065 -28.097,-4.28 -28.882,-14.104 -30.637,-36.09 -11.402,-29.72 -4.215,-17.948 -1.149,-12.928 0.178,-6.233 0,0"
             style="fill:#dcedf9;fill-opacity:1;fill-rule:nonzero;stroke:none"
             id="path28" />
        </g>
        <g
           id="g30"
           transform="translate(257.5498,375.2637)">
          <path
             d="m 0,0 c -12.121,2.293 -19.25,-7.905 -12.168,-17.304 4.063,-5.392 10.343,-11.059 19.772,-13.925 21.102,-6.416 18.991,13.736 9.028,23.274 C 12.383,-3.887 6.127,-1.16 0,0"
             style="fill:#dcedf9;fill-opacity:1;fill-rule:nonzero;stroke:none"
             id="path32" />
        </g>
        <g
           id="g34"
           transform="translate(57.2124,262.2803)">
          <path
             d="m 0,0 c 4.85,11.343 -3.575,20.5 -14.278,15.609 -6.14,-2.806 -13.026,-7.718 -17.856,-16.31 -10.808,-19.225 9.325,-21.502 20.784,-13.827 C -6.461,-11.255 -2.451,-5.733 0,0"
             style="fill:#dcedf9;fill-opacity:1;fill-rule:nonzero;stroke:none"
             id="path36" />
        </g>
        <g
           id="g38"
           transform="translate(458.127,69.0107)">
          <path
             d="m 0,0 c 0,-7.554 -93.018,-13.678 -207.76,-13.678 -114.743,0 -207.761,6.124 -207.761,13.678 0,7.553 93.018,13.677 207.761,13.677 C -93.018,13.677 0,7.553 0,0"
             style="fill:#dcedf9;fill-opacity:1;fill-rule:nonzero;stroke:none"
             id="path40" />
        </g>
        <g
           id="g42"
           transform="translate(452.5283,181.2178)">
          <path
             d="m 0,0 c -12.721,-12.716 1.469,-13.794 -7.865,-23.397 -8.507,-8.753 -21.062,-0.234 -20.226,-21.612 0.183,-4.677 -3.221,-8.146 -7.995,-9.924 -7.857,-2.923 -15.544,-0.219 -20.277,5.156 -0.386,0.432 -0.751,0.886 -1.094,1.357 -3.593,4.903 -4.903,11.548 -2.241,18.134 2.16,5.344 5.985,10.6 12.764,12.696 15.905,4.916 7.077,25.981 20.52,26.904 16.211,1.117 16.793,7.062 28.298,15.079 C 14.08,32.89 17.24,17.231 0,0"
             style="fill:#0077eb;fill-opacity:1;fill-rule:nonzero;stroke:none"
             id="path44" />
        </g>
        <g
           id="g46"
           transform="translate(446.8252,188.165)">
          <path
             d="m 0,0 c -0.355,-0.366 -29.851,-30.776 -50.66,-56.725 -0.386,0.433 -0.751,0.887 -1.094,1.358 20.867,25.964 50.177,56.187 50.534,56.554 0.328,0.336 0.866,0.344 1.203,0.016 C 0.32,0.876 0.328,0.337 0,0"
             style="fill:#0059d3;fill-opacity:1;fill-rule:nonzero;stroke:none"
             id="path48" />
        </g>
        <g
           id="g50"
           transform="translate(455.7939,138.7676)">
          <path
             d="m 0,0 c -19.929,-11.731 -2.614,-17.643 -17.324,-26.591 -13.409,-8.156 -26.292,6.491 -32.137,-20.388 -1.278,-5.88 -6.633,-9.104 -13.147,-9.779 -10.722,-1.108 -19.419,4.733 -23.581,12.947 -0.34,0.664 -0.649,1.346 -0.924,2.042 -2.894,7.261 -2.385,15.954 3.05,23.295 4.409,5.956 10.864,11.268 19.977,11.693 21.38,0.997 17.175,30.06 34.206,26.883 C -9.341,16.27 -6.703,23.483 10.2,29.756 28.118,36.407 27.009,15.898 0,0"
             style="fill:#008eff;fill-opacity:1;fill-rule:nonzero;stroke:none"
             id="path52" />
        </g>
        <g
           id="g54"
           transform="translate(450.9326,149.252)">
          <path
             d="m 0,0 c -0.561,-0.341 -47.067,-28.696 -81.328,-54.295 -0.34,0.663 -0.649,1.346 -0.924,2.042 34.336,25.6 80.553,53.782 81.115,54.123 C -0.62,2.185 0.053,2.02 0.367,1.504 0.681,0.987 0.516,0.314 0,0"
             style="fill:#0077eb;fill-opacity:1;fill-rule:nonzero;stroke:none"
             id="path56" />
        </g>
        <g
           id="g58"
           transform="translate(67.125,326.4844)">
          <path
             d="m 0,0 c 6.838,-16.636 -6.67,-12.163 -1.759,-24.621 4.478,-11.356 19.345,-8.332 10.336,-27.737 -1.971,-4.245 -0.168,-8.759 3.553,-12.239 6.124,-5.724 14.259,-6.192 20.698,-3.057 0.523,0.252 1.035,0.53 1.533,0.832 5.204,3.14 8.974,8.766 9.056,15.87 0.066,5.763 -1.438,12.089 -6.886,16.634 -12.782,10.665 3.482,26.701 -8.567,32.734 C 13.435,5.693 15.189,11.404 7.661,23.234 -0.318,35.776 -9.268,22.544 0,0"
             style="fill:#0077eb;fill-opacity:1;fill-rule:nonzero;stroke:none"
             id="path60" />
        </g>
        <g
           id="g62"
           transform="translate(75.0649,330.6978)">
          <path
             d="m 0,0 c 0.187,-0.475 15.685,-39.903 24.888,-71.867 0.523,0.251 1.035,0.53 1.533,0.832 -9.25,32 -24.65,71.184 -24.838,71.66 C 1.41,1.062 0.916,1.276 0.479,1.104 0.042,0.931 -0.172,0.437 0,0"
             style="fill:#0059d3;fill-opacity:1;fill-rule:nonzero;stroke:none"
             id="path64" />
        </g>
        <g
           id="g66"
           transform="translate(47.6528,283.0303)">
          <path
             d="m 0,0 c 14.421,-18.078 -3.862,-17.412 6.679,-31.026 9.609,-12.409 26.876,-3.331 22.729,-30.526 -0.907,-5.949 2.942,-10.872 8.786,-13.831 9.618,-4.866 19.828,-2.518 26.651,3.666 0.554,0.499 1.087,1.027 1.593,1.578 5.296,5.747 7.927,14.048 5.474,22.846 -1.99,7.139 -6.12,14.407 -14.48,18.06 C 37.82,-20.662 52.133,4.98 35.09,8.097 14.538,11.858 14.652,19.538 1.106,31.437 -13.252,44.051 -19.545,24.5 0,0"
             style="fill:#008eff;fill-opacity:1;fill-rule:nonzero;stroke:none"
             id="path68" />
        </g>
        <g
           id="g70"
           transform="translate(55.9399,291.0854)">
          <path
             d="m 0,0 c 0.401,-0.519 33.706,-43.621 56.558,-79.772 0.554,0.499 1.087,1.026 1.592,1.578 C 35.229,-42.016 2.133,0.821 1.729,1.341 1.359,1.818 0.672,1.905 0.194,1.535 -0.283,1.165 -0.37,0.478 0,0"
             style="fill:#0077eb;fill-opacity:1;fill-rule:nonzero;stroke:none"
             id="path72" />
        </g>
        <g
           id="g74"
           transform="translate(144.9209,298.7676)">
          <path
             d="M 0,0 C 5.81,3.979 20.36,-5.834 27.968,-17.75 L 21.219,1.159 C 18.776,3.277 14.5,6.25 7.816,8.619 -2.578,12.303 -12.995,18.073 -7.174,22.059 -1.72,25.794 11.438,17.373 19.323,6.468 L 10.655,30.75 c -1.612,1.241 -4.066,2.747 -7.573,3.99 -6.55,2.322 -13.116,5.958 -9.447,8.47 3.183,2.18 10.53,-2.21 15.546,-8.329 l -2.81,7.87 C 5.086,45.038 3.259,48.305 0.379,51.285 -6.294,58.189 -11.339,65.956 -6.193,67.081 -1.042,68.208 7.389,54.678 8.715,42.455 l 1.446,-4.05 c -1.122,8.891 2.074,19.655 6.531,20.036 4.43,0.379 1.652,-6.593 -1.948,-12.538 -2.74,-4.525 -3.496,-8.115 -3.699,-9.973 L 17.873,16.802 C 16.136,30.886 21.198,47.871 28.251,48.474 35.279,49.075 30.871,38.012 25.16,28.58 20.844,21.452 19.628,15.782 19.296,12.815 l 8.188,-22.938 c -1.452,13.918 3.526,30.81 10.47,30.864 5.353,0.043 3.714,-7.516 -2.68,-18.185 -4.345,-7.252 -5.734,-13.763 -6.179,-17.192 l 3.857,-10.804 c -0.646,-0.457 -1.318,-0.697 -1.986,-0.709 l -1.534,4.299 c -2.168,2.097 -6.683,5.661 -14.442,8.411 C 4.597,-9.756 -5.82,-3.985 0,0"
             style="fill:#008eff;fill-opacity:1;fill-rule:nonzero;stroke:none"
             id="path76" />
        </g>
        <g
           id="g78"
           transform="translate(93.8027,138.5205)">
          <path
             d="m 0,0 c -5.96,-3.749 -2.739,-21.001 5.169,-32.719 l -14.667,13.71 c -0.973,3.083 -2.001,8.19 -1.517,15.264 0.751,11.001 -0.402,22.853 -6.373,19.098 -5.596,-3.521 -3.099,-18.942 3.771,-30.512 L -32.452,2.447 c -0.497,1.973 -0.903,4.824 -0.65,8.535 0.474,6.934 -0.253,14.404 -4.016,12.037 -3.266,-2.055 -2.158,-10.541 1.462,-17.577 l -6.105,5.707 c -1.587,2.087 -3.859,5.064 -5.448,8.891 -3.683,8.867 -8.803,16.584 -11.882,12.31 -3.081,-4.28 5.982,-17.394 16.671,-23.47 l 3.141,-2.937 c -7.712,4.565 -18.86,5.911 -20.981,1.972 -2.109,-3.913 5.393,-4.136 12.279,-3.196 5.241,0.716 8.836,-0.018 10.622,-0.571 l 14.838,-13.869 c -12.233,7.194 -29.831,9.3 -33.188,3.068 -3.346,-6.21 8.558,-6.563 19.483,-5.072 8.257,1.126 13.942,-0.011 16.796,-0.886 l 17.793,-16.631 c -12.194,6.864 -29.672,9.011 -32.483,2.661 -2.166,-4.895 5.421,-6.396 17.753,-4.771 8.381,1.105 14.908,-0.209 18.231,-1.164 l 8.381,-7.834 c 0.676,0.412 1.163,0.934 1.44,1.54 L 8.35,-35.691 C 7.288,-32.869 5.812,-27.31 6.374,-19.097 7.125,-8.096 5.971,3.757 0,0"
             style="fill:#008eff;fill-opacity:1;fill-rule:nonzero;stroke:none"
             id="path80" />
        </g>
        <path
           d="M 394.586,73.379 H 76.492 v 219.729 h 318.094 z"
           style="fill:#ffaa01;fill-opacity:1;fill-rule:nonzero;stroke:none"
           id="path82" />
        <g
           id="g84"
           transform="translate(394.5762,293.0991)">
          <path
             d="m 0,0 v -14.086 l -159.037,-140.96 -159.046,140.96 V 0 l 159.036,-141.443 z"
             style="fill:#f88800;fill-opacity:1;fill-rule:nonzero;stroke:none"
             id="path86" />
        </g>
        <g
           id="g88"
           transform="translate(204.8945,179.3936)">
          <path
             d="m 0,0 -119.189,-106.015 h -9.213 v 5.602 L -6.852,7.699 Z"
             style="fill:#f88800;fill-opacity:1;fill-rule:nonzero;stroke:none"
             id="path90" />
        </g>
        <g
           id="g92"
           transform="translate(394.5859,78.2363)">
          <path
             d="m 0,0 v -4.857 h -10.047 l -119.189,106.014 6.851,7.699 z"
             style="fill:#f88800;fill-opacity:1;fill-rule:nonzero;stroke:none"
             id="path94" />
        </g>
        <g
           id="g96"
           transform="translate(76.4829,293.1084)">
          <path
             d="M 0,0 159.047,-141.453 318.094,0 Z"
             style="fill:#fdcc50;fill-opacity:1;fill-rule:nonzero;stroke:none"
             id="path98" />
        </g>
        <g
           id="g100"
           transform="translate(306.8271,312.8975)">
          <path
             d="m 0,0 4.059,-8.686 -8.58,-0.133 -3.311,7.904 z"
             style="fill:#f9af8b;fill-opacity:1;fill-rule:nonzero;stroke:none"
             id="path102" />
        </g>
        <g
           id="g104"
           transform="translate(308.1846,304.7554)">
          <path
             d="m 0,0 c 0,0 1.762,2.367 3.162,2.266 1.4,-0.101 12.196,-8.685 15.896,-9.394 3.699,-0.709 3.356,-4.477 1.807,-4.477 -4.458,0 -29.06,-0.042 -29.06,-0.042 0,0 -0.743,8.801 0.198,11.425 C -7.056,2.403 -2.893,-0.621 0,0"
             style="fill:#008eff;fill-opacity:1;fill-rule:nonzero;stroke:none"
             id="path106" />
        </g>
        <g
           id="g108"
           transform="translate(314.1523,298.7651)">
          <path
             d="M 0,0 C -0.131,-0.039 -0.277,-0.027 -0.405,0.046 -0.653,0.188 -0.74,0.504 -0.599,0.752 -0.552,0.836 0.578,2.798 2.099,3.564 4.121,4.586 5.699,3.442 5.766,3.393 5.995,3.223 6.043,2.898 5.872,2.668 5.702,2.438 5.377,2.39 5.147,2.562 5.104,2.592 4.006,3.363 2.565,2.639 1.326,2.014 0.312,0.257 0.302,0.239 0.232,0.119 0.123,0.037 0,0"
             style="fill:#ffffff;fill-opacity:1;fill-rule:nonzero;stroke:none"
             id="path110" />
        </g>
        <g
           id="g112"
           transform="translate(312.6084,300.2241)">
          <path
             d="M 0,0 C -0.131,-0.039 -0.277,-0.027 -0.405,0.046 -0.654,0.188 -0.741,0.504 -0.6,0.753 -0.552,0.836 0.578,2.798 2.099,3.564 4.123,4.587 5.698,3.443 5.765,3.394 5.995,3.223 6.043,2.898 5.872,2.668 5.701,2.439 5.377,2.391 5.146,2.562 5.104,2.593 4.005,3.364 2.564,2.639 1.32,2.012 0.312,0.258 0.302,0.24 0.232,0.12 0.123,0.037 0,0"
             style="fill:#ffffff;fill-opacity:1;fill-rule:nonzero;stroke:none"
             id="path114" />
        </g>
        <g
           id="g116"
           transform="translate(316.2461,297.5806)">
          <path
             d="M 0,0 C -0.131,-0.039 -0.277,-0.026 -0.405,0.046 -0.653,0.188 -0.74,0.504 -0.6,0.753 -0.552,0.836 0.578,2.798 2.099,3.564 4.123,4.587 5.699,3.443 5.766,3.394 5.995,3.223 6.043,2.898 5.872,2.669 5.702,2.439 5.377,2.391 5.147,2.562 5.104,2.593 4.005,3.364 2.565,2.639 1.32,2.012 0.312,0.258 0.302,0.24 0.232,0.12 0.123,0.037 0,0"
             style="fill:#ffffff;fill-opacity:1;fill-rule:nonzero;stroke:none"
             id="path118" />
        </g>
        <g
           id="g120"
           transform="translate(309.2715,310.0664)">
          <path
             d="m 0,0 -3.801,-1.24 -2.113,-0.126 -3.632,-0.212 c -4.799,3.795 -17.744,15.217 -20.266,21.951 0,0 -16.657,-38.733 -39.685,-38.733 -1.494,0 2.455,19.274 6.209,23.282 0,0 21.225,39.559 34.986,35.36 C -22.14,38.401 -15.906,29.43 0,0"
             style="fill:#2e3052;fill-opacity:1;fill-rule:nonzero;stroke:none"
             id="path122" />
        </g>
        <g
           id="g124"
           transform="translate(305.4707,308.8262)">
          <path
             d="m 0,0 -2.113,-0.125 c -14.126,10.696 -20.67,19.753 -23.683,25.556 -0.103,0.201 -0.272,0.267 -0.387,0.264 -0.098,-0.003 -0.17,-0.057 -0.215,-0.172 C -33.163,9.6 -41.28,0.044 -46.899,-5.172 c -6.123,-5.682 -10.603,-7.555 -10.789,-7.634 l -0.259,0.632 -0.259,0.63 c 0.043,0.019 4.488,1.887 10.445,7.433 5.502,5.12 13.458,14.51 20.109,30.169 0.253,0.602 0.785,0.976 1.418,1 0.68,0.027 1.319,-0.365 1.649,-0.998 C -21.548,20.209 -14.819,10.963 0,0"
             style="fill:#001030;fill-opacity:1;fill-rule:nonzero;stroke:none"
             id="path126" />
        </g>
        <g
           id="g128"
           transform="translate(295.917,311.0781)">
          <path
             d="m 0,0 c 0.604,-1.13 1.643,-2.727 2.636,-3.499 0,0 8.134,0.375 12.09,2.363 L 12.95,2.999 C 12.95,2.999 6.476,0.636 0,0"
             style="fill:#524e84;fill-opacity:1;fill-rule:nonzero;stroke:none"
             id="path130" />
        </g>
        <g
           id="g132"
           transform="translate(306.5635,366.6035)">
          <path
             d="m 0,0 c -11.567,-4.711 -20.812,-7.08 -28.68,-8.055 0,0 -0.006,0.003 -0.015,0.003 -0.102,-0.003 -1.953,-0.153 -2.665,-0.125 -2.119,0.073 -4.99,0.554 -7.896,1.911 -2.07,0.968 -5.028,3.466 -8.123,6.446 -3.832,3.696 -7.872,8.132 -10.667,11.301 -2.173,2.462 -3.596,4.16 -3.596,4.16 1.93,2.87 6.202,5.481 9.919,6.877 0,0 7.758,-12.919 19.512,-19.263 0.64,-0.348 1.293,-0.671 1.955,-0.97 2.679,0.435 9.924,0.765 13.066,0.988 8.514,0.606 15.466,2.083 15.466,2.083 z"
             style="fill:#0077eb;fill-opacity:1;fill-rule:nonzero;stroke:none"
             id="path134" />
        </g>
        <g
           id="g136"
           transform="translate(304.5469,372.3853)">
          <path
             d="m 0,0 c 0,0 1.61,4.068 3.802,5.23 2.19,1.161 8.427,5.249 9.759,4.025 C 14.892,8.032 14.616,2.158 9.025,-2.752 5.464,-5.88 1.876,-5.748 1.876,-5.748 Z"
             style="fill:#f9af8b;fill-opacity:1;fill-rule:nonzero;stroke:none"
             id="path138" />
        </g>
        <g
           id="g140"
           transform="translate(318.5059,377.9033)">
          <path
             d="m 0,0 -9.205,-8.599 c -0.346,-0.326 -0.971,-0.419 -1.398,-0.212 l -5.641,2.728 c -0.175,0.085 -0.29,0.208 -0.339,0.346 l -0.013,0.045 -0.277,0.943 1.496,0.567 14.483,5.501 0.786,0.296 L 0.186,0.619 0.208,0.55 C 0.213,0.542 0.214,0.535 0.211,0.525 0.244,0.351 0.174,0.161 0,0"
             style="fill:#001030;fill-opacity:1;fill-rule:nonzero;stroke:none"
             id="path142" />
        </g>
        <g
           id="g144"
           transform="translate(317.6123,379.2227)">
          <path
             d="m 0,0 -14.483,-5.501 8.191,7.654 c 0.345,0.322 0.971,0.418 1.395,0.213 z"
             style="fill:#1f2232;fill-opacity:1;fill-rule:nonzero;stroke:none"
             id="path146" />
        </g>
        <g
           id="g148"
           transform="translate(307.623,370.0483)">
          <path
             d="M 0,0 -5.645,2.729 C -6.07,2.935 -6.136,3.363 -5.79,3.685 l 9.205,8.6 c 0.346,0.322 0.97,0.417 1.396,0.211 L 10.455,9.767 C 10.88,9.561 10.945,9.133 10.601,8.811 L 1.395,0.211 C 1.05,-0.111 0.425,-0.206 0,0"
             style="fill:#2e3052;fill-opacity:1;fill-rule:nonzero;stroke:none"
             id="path150" />
        </g>
        <g
           id="g152">
          <g
             id="g154" />
          <g
             id="g166">
            <g
               clip-path="url(#clipPath158)"
               id="g164">
              <g
                 transform="translate(308.3076,371.5894)"
                 id="g162">
                <path
                   d="M 0,0 -4.373,2.114 C -4.799,2.32 -4.863,2.748 -4.519,3.07 l 7.16,6.689 C 2.986,10.081 3.61,10.176 4.036,9.97 L 8.408,7.855 C 8.834,7.649 8.899,7.222 8.554,6.899 L 1.395,0.211 C 1.05,-0.111 0.425,-0.206 0,0"
                   style="fill:#2e3052;fill-opacity:1;fill-rule:nonzero;stroke:none"
                   id="path160" />
              </g>
            </g>
          </g>
        </g>
        <g
           id="g168"
           transform="translate(318.7207,378.4312)">
          <path
             d="m 0,0 -0.004,-0.002 c 0.003,0.009 0.002,0.016 -0.003,0.024 z"
             style="fill:#1f2232;fill-opacity:1;fill-rule:nonzero;stroke:none"
             id="path170" />
        </g>
        <g
           id="g172"
           transform="translate(308.1914,379.6733)">
          <path
             d="M 0,0 C 0,0 1.311,-0.205 1.444,-1.332 1.578,-2.459 0.358,-2.011 -0.426,-1.763 -1.211,-1.515 -1.917,-1.764 -2.024,-1.891 -2.367,-2.295 -2.309,0.333 0,0"
             style="fill:#f9af8b;fill-opacity:1;fill-rule:nonzero;stroke:none"
             id="path174" />
        </g>
        <g
           id="g176"
           transform="translate(314.0527,373.5508)">
          <path
             d="M 0,0 C 0,0 2.058,3.382 3.635,5.229 4.686,6.459 5.222,4.674 4.503,3.43 3.783,2.186 2.365,-0.35 0,0"
             style="fill:#f9af8b;fill-opacity:1;fill-rule:nonzero;stroke:none"
             id="path178" />
        </g>
        <g
           id="g180"
           transform="translate(218.1895,312.5854)">
          <path
             d="m 0,0 -4.56,29.397 -0.271,1.742 0.032,1.313 1.016,41.645 11.554,3.905 0.619,0.211 2.595,0.879 2.057,0.694 12.198,-1.68 1.987,-0.273 0.699,-0.096 8.727,-1.201 C 36.734,48.928 34.085,42.963 39.186,20.505 41.755,12.035 32.333,-17.966 0,0"
             style="fill:#008eff;fill-opacity:1;fill-rule:nonzero;stroke:none"
             id="path182" />
        </g>
        <g
           id="g184"
           transform="translate(224.6851,320.1064)">
          <path
             d="m 0,0 c 0,0 0.001,0 0.002,0 9.135,2.551 15.8,8.856 19.782,13.697 4.307,5.235 6.496,9.942 6.518,9.989 0.105,0.229 0.005,0.5 -0.224,0.605 -0.229,0.105 -0.5,0.005 -0.606,-0.224 -0.021,-0.046 -2.171,-4.664 -6.409,-9.81 C 15.167,9.525 8.654,3.364 -0.244,0.879 -0.486,0.812 -0.628,0.56 -0.561,0.317 -0.493,0.075 -0.242,-0.066 0,0"
             style="fill:#0077eb;fill-opacity:1;fill-rule:nonzero;stroke:none"
             id="path186" />
        </g>
        <g
           id="g188"
           transform="translate(235.0703,319.6152)">
          <path
             d="m 0,0 c 7.937,2.179 14.61,8.874 14.913,9.181 0.177,0.18 0.175,0.468 -0.004,0.646 -0.18,0.176 -0.469,0.174 -0.646,-0.005 C 14.185,9.743 6.332,1.868 -2.16,0.456 -2.413,0.416 -2.577,0.179 -2.536,-0.069 -2.495,-0.318 -2.259,-0.486 -2.011,-0.445 -1.333,-0.333 -0.662,-0.182 0,0"
             style="fill:#0077eb;fill-opacity:1;fill-rule:nonzero;stroke:none"
             id="path190" />
        </g>
        <g
           id="g192"
           transform="translate(229.4531,378.3384)">
          <path
             d="m 0,0 c 7.932,2.198 14.588,8.911 14.89,9.218 0.176,0.18 0.173,0.47 -0.006,0.646 -0.18,0.177 -0.469,0.173 -0.646,-0.006 C 14.16,9.778 6.327,1.883 -2.162,0.45 -2.414,0.41 -2.578,0.172 -2.536,-0.076 -2.494,-0.325 -2.258,-0.492 -2.01,-0.45 -1.333,-0.336 -0.662,-0.184 0,0"
             style="fill:#0077eb;fill-opacity:1;fill-rule:nonzero;stroke:none"
             id="path194" />
        </g>
        <g
           id="g196"
           transform="translate(299.0547,236.502)">
          <path
             d="m 0,0 3.194,-7.11 -6.549,-2.818 -3.811,7.344 z"
             style="fill:#f9af8b;fill-opacity:1;fill-rule:nonzero;stroke:none"
             id="path198" />
        </g>
        <g
           id="g200"
           transform="translate(300.8184,229.542)">
          <path
             d="M 0,0 C 0,0 0.671,2.874 1.994,3.341 3.317,3.807 16.645,0.249 20.319,1.076 23.994,1.903 24.423,-0.88 24.357,-2.427 24.291,-3.974 -2.905,-13.73 -2.905,-13.73 c 0,0 -4.153,7.551 -4.338,10.334 C -7.428,-0.614 -2.403,-1.725 0,0"
             style="fill:#008eff;fill-opacity:1;fill-rule:nonzero;stroke:none"
             id="path202" />
        </g>
        <g
           id="g204"
           transform="translate(308.6826,226.4346)">
          <path
             d="m 0,0 c -0.104,-0.089 -0.243,-0.136 -0.39,-0.12 -0.285,0.031 -0.49,0.286 -0.46,0.57 0.01,0.095 0.262,2.345 1.351,3.654 C 1.947,5.85 3.85,5.431 3.931,5.412 4.209,5.348 4.383,5.069 4.318,4.791 4.254,4.512 3.975,4.338 3.696,4.403 3.645,4.414 2.329,4.683 1.298,3.442 0.411,2.375 0.183,0.359 0.181,0.339 0.166,0.201 0.098,0.082 0,0"
             style="fill:#ffffff;fill-opacity:1;fill-rule:nonzero;stroke:none"
             id="path206" />
        </g>
        <g
           id="g208"
           transform="translate(306.6836,227.1543)">
          <path
             d="m 0,0 c -0.104,-0.088 -0.243,-0.135 -0.39,-0.119 -0.284,0.03 -0.49,0.286 -0.46,0.57 0.01,0.096 0.263,2.346 1.351,3.655 C 1.948,5.853 3.85,5.433 3.931,5.414 4.209,5.35 4.383,5.071 4.317,4.792 4.254,4.514 3.975,4.34 3.696,4.405 3.644,4.416 2.328,4.685 1.298,3.444 0.407,2.372 0.183,0.361 0.181,0.341 0.166,0.203 0.099,0.084 0,0"
             style="fill:#ffffff;fill-opacity:1;fill-rule:nonzero;stroke:none"
             id="path210" />
        </g>
        <g
           id="g212"
           transform="translate(311.0742,226.1846)">
          <path
             d="m 0,0 c -0.104,-0.089 -0.242,-0.136 -0.39,-0.12 -0.284,0.031 -0.49,0.286 -0.46,0.57 0.011,0.096 0.263,2.346 1.351,3.655 1.447,1.747 3.35,1.328 3.43,1.308 C 4.21,5.349 4.383,5.07 4.318,4.792 4.254,4.514 3.976,4.339 3.696,4.404 3.645,4.415 2.328,4.684 1.298,3.443 0.408,2.372 0.184,0.36 0.182,0.34 0.166,0.202 0.099,0.083 0,0"
             style="fill:#ffffff;fill-opacity:1;fill-rule:nonzero;stroke:none"
             id="path214" />
        </g>
        <g
           id="g216"
           transform="translate(300.7041,235.123)">
          <path
             d="m 0,0 c -0.679,-0.771 -2.775,-1.941 -5.061,-2.964 -0.414,-0.187 -0.838,-0.368 -1.258,-0.542 -0.743,-0.306 -1.479,-0.584 -2.171,-0.821 0,0 -15.538,28.639 -21.501,49.408 0,0 -52.595,6.494 -54.416,24.914 -0.063,0.616 -0.066,1.246 -0.009,1.893 0.156,1.756 0.764,3.61 1.901,5.572 1.2,2.067 19.2,0.052 28.926,-2.677 0,0 26.365,-10.271 36.112,-20.852 C -12.542,48.576 0,0 0,0"
             style="fill:#2e3052;fill-opacity:1;fill-rule:nonzero;stroke:none"
             id="path218" />
        </g>
        <g
           id="g220"
           transform="translate(295.6436,232.1592)">
          <path
             d="m 0,0 c -0.414,-0.187 -0.839,-0.368 -1.259,-0.542 -7.858,13.005 -18.769,43.39 -21.202,50.683 -0.163,0.493 -0.586,0.861 -1.103,0.96 -25.554,4.804 -40.277,11.505 -48.129,16.282 -3.46,2.105 -5.931,4.025 -7.654,5.576 -0.063,0.616 -0.065,1.246 -0.008,1.893 1.671,-1.634 4.371,-3.886 8.526,-6.397 7.751,-4.687 22.287,-11.271 47.517,-16.016 1.004,-0.188 1.825,-0.905 2.146,-1.867 C -18.733,43.273 -7.778,12.752 0,0"
             style="fill:#001030;fill-opacity:1;fill-rule:nonzero;stroke:none"
             id="path222" />
        </g>
        <g
           id="g224"
           transform="translate(289.4082,233.7969)">
          <path
             d="m 0,0 2.48,-3.968 c 0,0 6.18,1.068 10.361,5.294 L 11.296,4.871 C 11.296,4.871 3.78,1.166 0,0"
             style="fill:#524e84;fill-opacity:1;fill-rule:nonzero;stroke:none"
             id="path226" />
        </g>
        <g
           id="g228"
           transform="translate(205.7002,301.7124)">
          <path
             d="m 0,0 c 0,0 3.58,-4.853 3.284,-7.365 -0.295,-2.511 -3.536,-7.243 -6.127,-7.471 -2.591,-0.228 2.977,6.081 1.663,5.877 -1.591,-0.246 -12.325,-9.054 -14.59,-9.054 -2.266,0 2.665,4.094 4.586,5.128 0,0 -5.079,-2.271 -6.261,-3.453 -1.181,-1.182 -2.04,1.353 3.869,4.948 0,0 -5.42,-3.077 -5.789,-3.126 -1.206,-0.161 2.234,3.872 5.196,5.33 0,0 -4.345,-2.115 -4.787,-2.125 -0.611,-0.013 0.7,1.41 3.924,3.197 2.902,1.608 7.655,8.991 7.655,8.991 z"
             style="fill:#f9af8b;fill-opacity:1;fill-rule:nonzero;stroke:none"
             id="path230" />
        </g>
        <g
           id="g232"
           transform="translate(214.4062,386.6816)">
          <path
             d="m 0,0 c 0,0 -12.047,-23.139 -14.791,-47.341 l -1.292,-36.751 c 0,0 1.238,-2.619 7.377,-0.877 l 5.938,36.745 4.55,16.814 c 0,0 2.068,20.691 -1.782,31.41"
             style="fill:#0077eb;fill-opacity:1;fill-rule:nonzero;stroke:none"
             id="path234" />
        </g>
        <g
           id="g236"
           transform="translate(251.4062,411.7007)">
          <path
             d="m 0,0 c -1.279,-7.239 -8.186,-12.071 -15.425,-10.791 -7.24,1.28 -12.071,8.186 -10.791,15.425 1.28,7.24 8.186,12.071 15.425,10.791 C -3.551,14.146 1.28,7.239 0,0"
             style="fill:#2e3052;fill-opacity:1;fill-rule:nonzero;stroke:none"
             id="path238" />
        </g>
        <g
           id="g240"
           transform="translate(251.6074,414.0889)">
          <path
             d="m 0,0 c 0,0 3.894,0.369 4.041,4.058 0.125,3.14 -3.828,1.789 -3.088,4.129 0.74,2.341 1.829,4.395 -1.165,5.542 -2.619,1.004 -2.993,-0.847 -6.077,2.479 -3.644,3.929 -8.18,-2.875 -11.973,-2.434 -5.596,0.653 -6.848,-2.356 -7.836,-4.765 -0.987,-2.409 0.833,-4.543 0.833,-4.543 z"
             style="fill:#2e3052;fill-opacity:1;fill-rule:nonzero;stroke:none"
             id="path242" />
        </g>
        <g
           id="g244"
           transform="translate(248.5562,408.4219)">
          <path
             d="M 0,0 C 0,0 2.566,2.401 3.705,-0.161 4.844,-2.723 1.466,-9.099 -2.022,-6.78 Z"
             style="fill:#fc8664;fill-opacity:1;fill-rule:nonzero;stroke:none"
             id="path246" />
        </g>
        <g
           id="g248"
           transform="translate(247.7285,403.5854)">
          <path
             d="M 0,0 C 0.14,-0.024 0.284,0.045 0.349,0.179 1.304,2.163 3.616,2.627 3.639,2.631 3.814,2.665 3.931,2.835 3.896,3.011 3.863,3.187 3.694,3.302 3.519,3.269 3.41,3.249 0.864,2.745 -0.236,0.46 -0.313,0.299 -0.246,0.105 -0.084,0.027 -0.057,0.014 -0.028,0.005 0,0"
             style="fill:#fd664d;fill-opacity:1;fill-rule:nonzero;stroke:none"
             id="path250" />
        </g>
        <g
           id="g252"
           transform="translate(250.0977,404.2515)">
          <path
             d="M 0,0 C 0.059,-0.011 0.122,-0.005 0.182,0.02 0.347,0.089 0.424,0.28 0.355,0.445 0.344,0.472 0.064,1.124 -0.673,1.623 -0.82,1.724 -1.023,1.685 -1.124,1.537 -1.224,1.388 -1.185,1.187 -1.037,1.086 -0.467,0.7 -0.245,0.199 -0.243,0.194 -0.199,0.088 -0.105,0.019 0,0"
             style="fill:#fd664d;fill-opacity:1;fill-rule:nonzero;stroke:none"
             id="path254" />
        </g>
        <g
           id="g256"
           transform="translate(231.2593,398.4282)">
          <path
             d="m 0,0 -1.188,-6.724 c 0,0 2.24,-3.452 4.911,-4.165 2.667,-0.715 4.884,2.212 4.884,2.212 l 1.143,6.466 z"
             style="fill:#f9af8b;fill-opacity:1;fill-rule:nonzero;stroke:none"
             id="path258" />
        </g>
        <g
           id="g260"
           transform="translate(231.2593,398.4282)">
          <path
             d="M 0,0 -0.527,-2.983 C 0.935,-5.325 4.078,-6.4 8.985,-6.54 l 0.765,4.329 z"
             style="fill:#fc8664;fill-opacity:1;fill-rule:nonzero;stroke:none"
             id="path262" />
        </g>
        <g
           id="g264"
           transform="translate(227.2227,416.9497)">
          <path
             d="m 0,0 c -0.337,-2.635 -0.666,-5.947 -0.629,-8.647 0.009,-0.674 0.041,-1.312 0.101,-1.89 0.539,-5.204 2.576,-14.327 13.111,-12.539 4.652,0.788 7.542,5.305 9.323,10.102 1.208,3.259 1.902,6.644 2.287,9.083 C 24.584,-1.4 23.63,1.107 21.687,2.712 16.424,7.062 10.034,6.917 5.695,6.073 2.683,5.488 0.389,3.038 0,0"
             style="fill:#f9af8b;fill-opacity:1;fill-rule:nonzero;stroke:none"
             id="path266" />
        </g>
        <g
           id="g268"
           transform="translate(243.4199,408.4248)">
          <path
             d="M 0,0 C -0.127,-0.718 0.14,-1.365 0.596,-1.446 1.053,-1.526 1.525,-1.01 1.652,-0.292 1.779,0.426 1.512,1.073 1.056,1.154 0.6,1.234 0.126,0.718 0,0"
             style="fill:#2e3052;fill-opacity:1;fill-rule:nonzero;stroke:none"
             id="path270" />
        </g>
        <g
           id="g272"
           transform="translate(233.7441,410.1353)">
          <path
             d="M 0,0 C -0.127,-0.718 0.14,-1.365 0.597,-1.446 1.053,-1.526 1.526,-1.01 1.652,-0.292 1.779,0.426 1.512,1.073 1.056,1.154 0.6,1.234 0.127,0.718 0,0"
             style="fill:#2e3052;fill-opacity:1;fill-rule:nonzero;stroke:none"
             id="path274" />
        </g>
        <g
           id="g276"
           transform="translate(247.6392,411.7949)">
          <path
             d="m 0,0 c 0,0 -3.199,1.967 -6.05,1.291 l 0.004,-1.269 c 0,0 2.982,0.134 5.605,-1.41 C -0.166,-0.852 0.121,-0.623 0,0"
             style="fill:#2e3052;fill-opacity:1;fill-rule:nonzero;stroke:none"
             id="path278" />
        </g>
        <g
           id="g280"
           transform="translate(231.8999,414.5771)">
          <path
             d="m 0,0 c 0,0 3.68,0.751 6.126,-0.861 l -0.439,-1.19 c 0,0 -2.754,1.147 -5.748,0.596 C -0.136,-0.857 -0.326,-0.543 0,0"
             style="fill:#2e3052;fill-opacity:1;fill-rule:nonzero;stroke:none"
             id="path282" />
        </g>
        <g
           id="g284"
           transform="translate(237.9385,404.1201)">
          <path
             d="M 0,0 C -0.539,0.095 -1.037,0.399 -1.114,0.448 -1.265,0.543 -1.31,0.744 -1.215,0.895 -1.12,1.047 -0.919,1.092 -0.768,0.997 -0.5,0.829 0.16,0.522 0.492,0.649 0.557,0.674 0.647,0.729 0.702,0.919 1.015,2.014 1.37,5.807 1.374,5.845 1.39,6.023 1.548,6.155 1.727,6.138 1.906,6.122 2.036,5.963 2.02,5.785 2.005,5.626 1.655,1.893 1.326,0.741 1.202,0.307 0.93,0.122 0.724,0.043 0.498,-0.043 0.244,-0.043 0,0"
             style="fill:#fc8664;fill-opacity:1;fill-rule:nonzero;stroke:none"
             id="path286" />
        </g>
        <g
           id="g288"
           transform="translate(241.6113,401.4556)">
          <path
             d="m 0,0 c -0.493,-1.268 -1.788,-3.531 -4.711,-3.014 -2.931,0.518 -3.362,2.871 -3.375,4.443 z"
             style="fill:#ffffff;fill-opacity:1;fill-rule:nonzero;stroke:none"
             id="path290" />
        </g>
        <g
           id="g292"
           transform="translate(236.6445,396.7666)">
          <path
             d="M 0,0 C -0.827,0.146 -1.454,0.689 -1.48,0.712 -1.615,0.83 -1.628,1.035 -1.51,1.17 -1.392,1.305 -1.187,1.318 -1.052,1.2 -1.048,1.196 -0.531,0.753 0.113,0.639 0.704,0.535 1.33,0.774 1.336,0.776 1.502,0.842 1.691,0.761 1.757,0.595 1.824,0.428 1.742,0.24 1.576,0.173 1.544,0.161 0.78,-0.138 0,0"
             style="fill:#fc8664;fill-opacity:1;fill-rule:nonzero;stroke:none"
             id="path294" />
        </g>
        <g
           id="g296"
           transform="translate(248.5078,406.2329)">
          <path
             d="m 0,0 c 0.474,1.274 1.013,2.933 0.994,3.835 -0.038,1.597 -1.156,2.73 -0.467,4.142 0.69,1.418 -0.6,3.294 -1.712,3.764 -1.108,0.472 -3.915,0.374 -6.354,2.109 -2.328,1.657 -6.898,1.574 -7.906,0.07 -1.221,-1.82 -0.068,-2.216 -2.823,-3.931 -1.097,-0.684 -0.364,-3.093 -0.458,-4.559 -0.045,-0.675 -0.091,-0.999 -0.243,-1.705 l -0.073,-0.359 -2.846,0.503 c 0.081,2.285 0.336,4.775 0.602,6.849 0.388,3.038 2.685,5.486 5.696,6.071 4.34,0.844 10.728,0.991 15.993,-3.36 C 2.345,11.822 3.3,9.316 2.907,6.826 2.603,4.892 2.103,2.361 1.304,-0.23 Z"
             style="fill:#2e3052;fill-opacity:1;fill-rule:nonzero;stroke:none"
             id="path298" />
        </g>
        <g
           id="g300"
           transform="translate(227.6641,408.6499)">
          <path
             d="M 0,0 C 0.14,0.742 0.219,1.497 0.219,2.252 0.218,3.285 0.088,4.246 -0.864,4.845 -1.629,5.327 -2.509,5.489 -3.301,4.67 -5.249,2.654 -4.789,-4.774 -0.717,-3.792 Z"
             style="fill:#f9af8b;fill-opacity:1;fill-rule:nonzero;stroke:none"
             id="path302" />
        </g>
        <g
           id="g304"
           transform="translate(226.583,407.062)">
          <path
             d="m 0,0 c -0.132,0.052 -0.219,0.187 -0.205,0.334 0.216,2.191 -1.517,3.79 -1.535,3.806 -0.132,0.12 -0.143,0.325 -0.023,0.458 0.12,0.133 0.326,0.144 0.458,0.024 C -1.224,4.548 0.69,2.794 0.441,0.271 0.423,0.092 0.265,-0.038 0.086,-0.02 0.056,-0.017 0.027,-0.01 0,0"
             style="fill:#fc8664;fill-opacity:1;fill-rule:nonzero;stroke:none"
             id="path306" />
        </g>
        <g
           id="g308"
           transform="translate(224.9058,408.8628)">
          <path
             d="M 0,0 C -0.056,0.022 -0.106,0.06 -0.145,0.112 -0.25,0.257 -0.217,0.46 -0.072,0.565 -0.048,0.583 0.53,0.993 1.419,1.037 1.597,1.046 1.75,0.908 1.759,0.729 1.768,0.55 1.629,0.397 1.451,0.389 0.763,0.355 0.312,0.042 0.309,0.04 0.216,-0.028 0.1,-0.039 0,0"
             style="fill:#fc8664;fill-opacity:1;fill-rule:nonzero;stroke:none"
             id="path310" />
        </g>
        <g
           id="g312"
           transform="translate(377.918,254.9429)">
          <path
             d="m 0,0 c 0,0 -4.382,-8.311 -9.54,-14.895 -1.523,-1.941 -3.11,-3.733 -4.677,-5.116 -2.536,-2.243 -5.01,-3.417 -7.024,-2.422 -7.472,3.69 -24.128,33.059 -24.128,33.059 l 4.101,4.767 c 0,0 7.414,-8.387 12.835,-13.407 5.001,-4.629 8.845,-8.089 8.845,-8.089 0.692,1.033 1.43,2.163 2.196,3.36 0.816,1.271 1.662,2.616 2.523,3.999 6.243,10.042 13.761,21.026 13.761,21.026 z"
             style="fill:#f9af8b;fill-opacity:1;fill-rule:nonzero;stroke:none"
             id="path314" />
        </g>
        <g
           id="g316"
           transform="translate(337.7383,267.4521)">
          <path
             d="m 0,0 c 0,0 1.69,2.776 1.037,5.263 -0.653,2.486 -1.289,8.106 -4.006,7.953 -0.991,-0.055 0.457,-2.403 -0.208,-4.578 0,0 -2.908,1.401 -4.855,2.84 -1.712,1.265 -5.258,3.32 -6.907,4.259 -0.453,0.257 -0.975,-0.237 -0.713,-0.679 0.423,-0.717 1.458,-1.787 3.848,-3.284 0,0 -5.94,3.327 -6.935,2.596 -0.996,-0.731 6.51,-4.757 6.51,-4.757 0,0 -6.061,2.45 -6.557,1.553 -0.302,-0.546 5.641,-4.038 5.641,-4.038 0,0 -5.903,1.823 -4.807,0.44 0.319,-0.402 11.534,-5.477 13.871,-11.37 0,0 3.268,1.79 4.081,3.802"
             style="fill:#f9af8b;fill-opacity:1;fill-rule:nonzero;stroke:none"
             id="path318" />
        </g>
        <g
           id="g320"
           transform="translate(368.3779,240.0479)">
          <path
             d="m 0,0 c -1.522,-1.941 -3.11,-3.733 -4.677,-5.116 l -3.175,17.268 c 0.816,1.271 1.662,2.616 2.523,3.999 z"
             style="fill:#fc8664;fill-opacity:1;fill-rule:nonzero;stroke:none"
             id="path322" />
        </g>
        <g
           id="g324"
           transform="translate(377.0361,277.9985)">
          <path
             d="m 0,0 -15.791,-22.774 5.026,-20.293 12.39,19.767 c 0,0 2.32,13.225 -1.625,23.3"
             style="fill:#008eff;fill-opacity:1;fill-rule:nonzero;stroke:none"
             id="path326" />
        </g>
        <g
           id="g328"
           transform="translate(385.1396,83.127)">
          <path
             d="M 0,0 V -7.189 L 6.712,-7.084 7.15,0.535 Z"
             style="fill:#f9af8b;fill-opacity:1;fill-rule:nonzero;stroke:none"
             id="path330" />
        </g>
        <g
           id="g332"
           transform="translate(402.1807,188.1758)">
          <path
             d="m 0,0 c -0.047,-0.854 -0.278,-4.957 -0.631,-10.678 -0.945,-15.717 -2.715,-43.645 -3.753,-49.92 -1.065,-6.437 -0.584,-27.547 -0.241,-38.596 0.056,-1.88 -0.677,-3.587 -1.899,-4.84 -0.455,-0.463 -0.983,-0.862 -1.558,-1.19 -1,-0.553 -2.149,-0.872 -3.373,-0.872 h -5.115 c -3.856,0 -6.951,3.124 -6.83,6.902 0.287,9.342 0.638,26.384 -0.029,39.55 -0.639,12.53 0.287,34.703 1.001,48.522 h 0.009 c 0.288,5.52 0.538,9.697 0.64,11.403 z"
             style="fill:#2e3052;fill-opacity:1;fill-rule:nonzero;stroke:none"
             id="path334" />
        </g>
        <g
           id="g336"
           transform="translate(380.4014,188.457)">
          <path
             d="M 0,0 21.779,-0.281 C 21.732,-1.135 21.501,-5.238 21.148,-10.959 13.753,-11.849 6.052,-12.221 -0.64,-11.403 -0.352,-5.883 -0.102,-1.706 0,0"
             style="fill:#001030;fill-opacity:1;fill-rule:nonzero;stroke:none"
             id="path338" />
        </g>
        <g
           id="g340"
           transform="translate(395.5723,108.6885)">
          <path
             d="m 0,0 c 0.19,-7.067 0.389,-14.373 0.259,-20.264 -0.036,-1.652 -0.095,-3.066 -0.173,-4.279 -0.455,-0.469 -0.982,-0.871 -1.564,-1.191 0.125,1.406 0.223,3.206 0.274,5.502 0.127,5.856 -0.07,13.143 -0.261,20.194 -0.234,8.614 -0.454,16.753 0.025,20.218 1.044,7.581 3.381,48.678 3.995,59.65 L 4.02,79.766 C 3.406,68.801 1.062,27.619 0.01,19.988 -0.452,16.639 -0.231,8.555 0,0"
             style="fill:#001030;fill-opacity:1;fill-rule:nonzero;stroke:none"
             id="path342" />
        </g>
        <g
           id="g344"
           transform="translate(386.8604,76.2061)">
          <path
             d="m 0,0 c 0,0 -1.39,1.915 -2.529,1.859 -1.139,-0.055 -10.066,-6.701 -13.084,-7.2 -3.019,-0.5 -2.484,-2.68 -1.958,-3.801 0.526,-1.12 23.987,-0.098 23.987,-0.098 0,0 0.797,6.817 0.078,8.924 C 5.776,1.789 2.34,-0.545 0,0"
             style="fill:#008eff;fill-opacity:1;fill-rule:nonzero;stroke:none"
             id="path346" />
        </g>
        <g
           id="g348"
           transform="translate(381.9043,71.542)">
          <path
             d="M 0,0 C 0.105,-0.034 0.225,-0.026 0.329,0.029 0.534,0.138 0.61,0.388 0.5,0.588 0.463,0.655 -0.42,2.237 -1.643,2.874 -3.268,3.723 -4.57,2.84 -4.625,2.802 -4.814,2.67 -4.859,2.412 -4.725,2.227 c 0.134,-0.186 0.398,-0.23 0.587,-0.098 0.036,0.023 0.943,0.618 2.1,0.017 C -1.042,1.626 -0.249,0.21 -0.241,0.195 -0.187,0.099 -0.1,0.031 0,0"
             style="fill:#ffffff;fill-opacity:1;fill-rule:nonzero;stroke:none"
             id="path350" />
        </g>
        <g
           id="g352"
           transform="translate(383.1846,72.6758)">
          <path
             d="m 0,0 c 0.105,-0.033 0.225,-0.026 0.33,0.03 0.205,0.109 0.281,0.359 0.171,0.559 -0.037,0.067 -0.92,1.649 -2.143,2.286 -1.626,0.849 -2.927,-0.034 -2.982,-0.072 -0.189,-0.132 -0.234,-0.39 -0.1,-0.575 0.135,-0.186 0.398,-0.23 0.587,-0.098 0.036,0.023 0.943,0.619 2.1,0.016 1,-0.521 1.789,-1.935 1.797,-1.95 C -0.187,0.1 -0.099,0.032 0,0"
             style="fill:#ffffff;fill-opacity:1;fill-rule:nonzero;stroke:none"
             id="path354" />
        </g>
        <g
           id="g356"
           transform="translate(380.1816,70.6357)">
          <path
             d="M 0,0 C 0.105,-0.034 0.225,-0.026 0.33,0.029 0.534,0.138 0.61,0.388 0.5,0.589 0.463,0.655 -0.42,2.237 -1.642,2.874 -3.269,3.724 -4.569,2.841 -4.624,2.803 -4.814,2.671 -4.858,2.413 -4.725,2.228 -4.59,2.041 -4.327,1.997 -4.137,2.13 c 0.035,0.023 0.943,0.618 2.1,0.016 1,-0.521 1.788,-1.936 1.796,-1.95 C -0.187,0.099 -0.1,0.031 0,0"
             style="fill:#ffffff;fill-opacity:1;fill-rule:nonzero;stroke:none"
             id="path358" />
        </g>
        <g
           id="g360"
           transform="translate(417.8291,83.127)">
          <path
             d="M 0,0 0.723,-7.178 6.712,-7.084 7.15,0.535 Z"
             style="fill:#f9af8b;fill-opacity:1;fill-rule:nonzero;stroke:none"
             id="path362" />
        </g>
        <g
           id="g364"
           transform="translate(430.1592,128.5322)">
          <path
             d="m 0,0 c -0.667,-13.166 -0.315,-30.208 -0.028,-39.551 0.111,-3.777 -2.975,-6.901 -6.83,-6.901 h -5.116 c -1.13,0 -2.206,0.272 -3.141,0.745 -0.566,0.29 -1.094,0.653 -1.548,1.09 -1.372,1.262 -2.206,3.068 -2.141,5.066 0.343,11.05 0.825,32.159 -0.241,38.597 -1.057,6.384 -2.873,35.166 -3.809,50.72 -0.306,5.193 -0.519,8.906 -0.575,9.823 L -1.612,59.308 C -1.548,58.2 -1.446,56.493 -1.325,54.332 -0.621,41.894 0.741,14.5 0,0"
             style="fill:#2e3052;fill-opacity:1;fill-rule:nonzero;stroke:none"
             id="path366" />
        </g>
        <g
           id="g368"
           transform="translate(428.834,182.8643)">
          <path
             d="m 0,0 c -4.105,-1.099 -12.252,-3.114 -21.528,-4.566 -0.307,5.193 -0.52,8.906 -0.576,9.823 L -0.287,4.976 C -0.223,3.868 -0.121,2.161 0,0"
             style="fill:#001030;fill-opacity:1;fill-rule:nonzero;stroke:none"
             id="path370" />
        </g>
        <g
           id="g372"
           transform="translate(414.7656,88.4561)">
          <path
             d="m 0,0 c 0.051,-2.366 0.153,-4.203 0.28,-5.627 -0.568,0.287 -1.092,0.651 -1.552,1.082 -0.088,1.263 -0.155,2.753 -0.194,4.514 -0.127,5.89 0.071,13.196 0.262,20.263 0.231,8.555 0.449,16.639 -0.013,19.989 -1.052,7.633 -3.396,48.837 -4.007,59.786 l 1.463,0.065 C -3.148,89.115 -0.812,47.995 0.236,40.412 0.715,36.947 0.493,28.809 0.261,20.194 0.07,13.144 -0.127,5.856 0,0"
             style="fill:#001030;fill-opacity:1;fill-rule:nonzero;stroke:none"
             id="path374" />
        </g>
        <g
           id="g376"
           transform="translate(420.8867,77.0527)">
          <path
             d="m 0,0 c 0,0 3.055,0.798 3.898,0.782 0.845,-0.016 6.502,-6.214 8.408,-6.579 3.454,-0.662 3.459,-5.946 1.356,-6.209 -6.08,-0.76 -16.481,1.757 -16.481,1.757 0,0 -0.958,6.781 -0.542,8.909 C -2.945,0.788 -1.698,-0.626 0,0"
             style="fill:#008eff;fill-opacity:1;fill-rule:nonzero;stroke:none"
             id="path378" />
        </g>
        <g
           id="g380"
           transform="translate(425.9219,71.2646)">
          <path
             d="M 0,0 C -0.109,-0.023 -0.227,-0.005 -0.326,0.06 -0.52,0.187 -0.57,0.443 -0.441,0.633 -0.397,0.695 0.636,2.188 1.914,2.707 3.614,3.399 4.825,2.399 4.876,2.356 5.052,2.207 5.071,1.946 4.919,1.774 4.768,1.602 4.501,1.583 4.325,1.732 4.292,1.759 3.448,2.436 2.236,1.944 1.195,1.521 0.268,0.186 0.258,0.172 0.195,0.08 0.102,0.021 0,0"
             style="fill:#ffffff;fill-opacity:1;fill-rule:nonzero;stroke:none"
             id="path382" />
        </g>
        <g
           id="g384"
           transform="translate(424.7568,72.5137)">
          <path
             d="M 0,0 C -0.108,-0.023 -0.226,-0.005 -0.325,0.061 -0.519,0.187 -0.57,0.443 -0.44,0.633 -0.397,0.696 0.636,2.188 1.914,2.707 3.616,3.4 4.825,2.4 4.876,2.356 5.052,2.208 5.071,1.947 4.919,1.775 4.768,1.603 4.501,1.583 4.325,1.732 4.292,1.76 3.447,2.437 2.237,1.945 1.191,1.521 0.269,0.187 0.259,0.173 0.196,0.081 0.102,0.021 0,0"
             style="fill:#ffffff;fill-opacity:1;fill-rule:nonzero;stroke:none"
             id="path386" />
        </g>
        <g
           id="g388"
           transform="translate(427.5479,70.2012)">
          <path
             d="M 0,0 C -0.108,-0.023 -0.227,-0.005 -0.326,0.061 -0.519,0.187 -0.57,0.443 -0.44,0.633 -0.397,0.696 0.636,2.188 1.914,2.708 3.616,3.401 4.825,2.4 4.876,2.357 5.052,2.208 5.071,1.947 4.919,1.775 4.768,1.603 4.501,1.584 4.325,1.732 4.292,1.76 3.447,2.437 2.236,1.945 1.19,1.521 0.268,0.187 0.259,0.173 0.195,0.081 0.102,0.022 0,0"
             style="fill:#ffffff;fill-opacity:1;fill-rule:nonzero;stroke:none"
             id="path390" />
        </g>
        <g
           id="g392"
           transform="translate(433.498,185.9717)">
          <path
             d="m 0,0 c -19.704,-4.858 -39.385,-4.872 -59.045,0 -0.103,7.196 -0.207,35.973 0.36,59.591 0.01,0.465 0.023,0.927 0.035,1.387 0.004,0.228 0.011,0.457 0.017,0.68 v 0.037 c 0.008,0.295 0.014,0.585 0.025,0.876 0.42,15.576 1.154,28.296 2.41,29.995 l 0.002,0.002 c 2.934,3.95 17.677,10.257 21.757,13.073 0.34,-0.536 2.346,-3.515 4.976,-3.735 2.887,-0.249 5.453,3.078 5.453,3.078 v 0.63 c 4.097,-2.815 17.454,-8.652 20.385,-12.59 C -0.42,88.708 0.136,12.262 0,0"
             style="fill:#008eff;fill-opacity:1;fill-rule:nonzero;stroke:none"
             id="path394" />
        </g>
        <g
           id="g396"
           transform="translate(380.8193,256.6509)">
          <path
             d="m 0,0 c -1.691,-2.241 -4.162,-7.318 -5.271,-9.665 -0.152,-0.321 -0.277,-0.592 -0.373,-0.797 -0.125,-0.269 -0.195,-0.425 -0.201,-0.437 -0.036,-0.08 -0.092,-0.144 -0.161,-0.189 0.01,0.464 0.023,0.926 0.034,1.386 0.004,0.229 0.012,0.457 0.018,0.681 v 0.037 c 0.226,0.479 0.496,1.04 0.796,1.656 1.261,2.577 3.06,6.05 4.424,7.858 0.149,0.199 0.435,0.24 0.638,0.094 C 0.107,0.478 0.147,0.197 0,0"
             style="fill:#0077eb;fill-opacity:1;fill-rule:nonzero;stroke:none"
             id="path398" />
        </g>
        <g
           id="g400"
           transform="translate(418.5488,274.0337)">
          <path
             d="m 0,0 c -0.005,0 -0.01,0 -0.015,0 -7.829,0.245 -13.87,3.436 -17.559,6.07 -3.996,2.853 -6.115,5.613 -6.203,5.729 -0.151,0.198 -0.109,0.478 0.092,0.625 0.204,0.148 0.489,0.107 0.639,-0.091 C -22.962,12.223 -14.514,1.348 0.015,0.894 0.267,0.886 0.464,0.68 0.456,0.433 0.448,0.191 0.245,0 0,0"
             style="fill:#0077eb;fill-opacity:1;fill-rule:nonzero;stroke:none"
             id="path402" />
        </g>
        <g
           id="g404"
           transform="translate(392.1719,200.9863)">
          <path
             d="m 0,0 c -0.238,0 -0.439,0.182 -0.455,0.418 -0.017,0.247 0.174,0.459 0.426,0.476 12.845,0.825 20.508,7.203 24.675,12.407 4.529,5.659 6.032,11.201 6.046,11.257 0.064,0.238 0.312,0.382 0.556,0.32 0.244,-0.062 0.391,-0.306 0.328,-0.545 C 31.515,24.102 30.022,18.582 25.387,12.778 21.104,7.418 13.23,0.849 0.03,0.001 0.021,0.001 0.01,0 0,0"
             style="fill:#0077eb;fill-opacity:1;fill-rule:nonzero;stroke:none"
             id="path406" />
        </g>
        <g
           id="g408"
           transform="translate(399.0693,208.9785)">
          <path
             d="m 0,0 c -0.201,0 -0.386,0.131 -0.44,0.331 -0.067,0.237 0.078,0.483 0.321,0.548 11.163,2.956 13.317,12.09 13.338,12.182 0.052,0.241 0.297,0.395 0.542,0.341 0.246,-0.051 0.402,-0.289 0.349,-0.53 C 14.089,12.771 13.548,10.389 11.55,7.601 9.711,5.034 6.234,1.636 0.119,0.016 0.079,0.005 0.039,0 0,0"
             style="fill:#0077eb;fill-opacity:1;fill-rule:nonzero;stroke:none"
             id="path410" />
        </g>
        <g
           id="g412"
           transform="translate(447.957,186.7627)">
          <path
             d="m 0,0 c -0.28,-3.914 -2.679,-6.821 -2.69,-9.397 -0.013,-2.58 -3.05,-0.893 -1.644,4.198 1.404,5.089 -0.679,10.014 -1.792,9.969 -1.114,-0.048 0.354,-5.737 -0.816,-7.626 -1.169,-1.888 -2.053,2.078 -3.079,4.533 -1.065,2.548 -0.469,7.832 0.496,11.554 0.964,3.72 -3.771,27.326 -3.151,33.977 l -1.709,8.629 -0.999,5.033 -0.186,5.255 9.127,3.542 c 0.343,-1.687 0.695,-3.436 1.045,-5.194 0.153,-0.775 0.304,-1.553 0.454,-2.327 1.22,-6.292 2.317,-12.486 2.763,-16.459 1.234,-10.992 -0.791,-33.408 -0.791,-33.408 0,0 3.236,-8.61 2.972,-12.279"
             style="fill:#f9af8b;fill-opacity:1;fill-rule:nonzero;stroke:none"
             id="path414" />
        </g>
        <g
           id="g416"
           transform="translate(443.0127,248.9082)">
          <path
             d="m 0,0 c -2.059,-2.304 -5.348,-5.237 -9.44,-6.309 l -0.999,5.034 -0.187,5.254 9.127,3.542 C -1.155,5.835 -0.804,4.086 -0.454,2.328 -0.301,1.552 -0.149,0.775 0,0"
             style="fill:#fc8664;fill-opacity:1;fill-rule:nonzero;stroke:none"
             id="path418" />
        </g>
        <g
           id="g420"
           transform="translate(445.5469,253.8901)">
          <path
             d="m 0,0 c 0,0 -1.089,-1.265 -2.989,-2.653 -2.3,-1.69 -5.794,-3.568 -9.974,-3.604 -0.505,14.562 -1.248,26.866 -2.33,30.479 C -13.367,21.893 -4.119,10.424 0,0"
             style="fill:#008eff;fill-opacity:1;fill-rule:nonzero;stroke:none"
             id="path422" />
        </g>
        <g
           id="g424"
           transform="translate(426.3203,258.1133)">
          <path
             d="m 0,0 c 1.69,-2.24 4.162,-7.317 5.271,-9.664 0.151,-0.322 0.276,-0.593 0.372,-0.798 0.126,-0.268 0.196,-0.425 0.201,-0.436 0.075,-0.168 0.242,-0.266 0.418,-0.266 h 0.009 c -0.005,0.227 -0.012,0.456 -0.019,0.682 0.135,0 0.269,0 0.399,0.004 -0.061,0.132 -0.21,0.454 -0.422,0.908 C 5.962,-9 5.593,-8.218 5.157,-7.328 3.897,-4.75 2.097,-1.276 0.734,0.53 0.584,0.729 0.299,0.771 0.096,0.624 -0.107,0.479 -0.148,0.197 0,0"
             style="fill:#0077eb;fill-opacity:1;fill-rule:nonzero;stroke:none"
             id="path426" />
        </g>
        <g
           id="g428"
           transform="translate(418.0693,315.0005)">
          <path
             d="m 0,0 c 0,-7.888 -4.956,-13.324 -13.007,-13.324 -8.052,0 -13.662,5.845 -13.662,13.733 0,7.887 4.767,13.863 12.818,13.863 C -4.195,14.272 0,7.888 0,0"
             style="fill:#2e3052;fill-opacity:1;fill-rule:nonzero;stroke:none"
             id="path430" />
        </g>
        <g
           id="g432"
           transform="translate(416.2607,311.6045)">
          <path
             d="M 0,0 C 0,0 2.237,2.922 3.9,0.505 5.563,-1.911 3.212,-9.047 -0.86,-7.305 Z"
             style="fill:#fc8664;fill-opacity:1;fill-rule:nonzero;stroke:none"
             id="path434" />
        </g>
        <g
           id="g436"
           transform="translate(416.29,306.5049)">
          <path
             d="M 0,0 C 0.15,0 0.288,0.097 0.331,0.246 0.962,2.449 3.292,3.342 3.315,3.351 3.492,3.417 3.582,3.612 3.515,3.786 3.447,3.96 3.249,4.048 3.071,3.982 2.963,3.941 0.396,2.965 -0.332,0.428 -0.383,0.249 -0.276,0.063 -0.094,0.013 -0.062,0.004 -0.031,0 0,0"
             style="fill:#fd664d;fill-opacity:1;fill-rule:nonzero;stroke:none"
             id="path438" />
        </g>
        <g
           id="g440"
           transform="translate(418.6416,307.6147)">
          <path
             d="m 0,0 c 0.063,0 0.128,0.017 0.186,0.054 0.16,0.1 0.206,0.309 0.103,0.466 -0.018,0.025 -0.43,0.642 -1.292,1.02 -0.172,0.076 -0.377,0 -0.454,-0.17 C -1.535,1.2 -1.457,1 -1.283,0.924 -0.617,0.632 -0.293,0.159 -0.29,0.154 -0.224,0.054 -0.113,0 0,0"
             style="fill:#fd664d;fill-opacity:1;fill-rule:nonzero;stroke:none"
             id="path442" />
        </g>
        <g
           id="g444"
           transform="translate(393.209,311.6045)">
          <path
             d="m 0,0 c 0,0 -2.237,2.922 -3.9,0.505 -1.663,-2.416 0.688,-9.552 4.76,-7.81 z"
             style="fill:#fc8664;fill-opacity:1;fill-rule:nonzero;stroke:none"
             id="path446" />
        </g>
        <g
           id="g448"
           transform="translate(393.1797,306.5049)">
          <path
             d="m 0,0 c -0.15,0 -0.288,0.097 -0.331,0.246 -0.631,2.203 -2.961,3.096 -2.984,3.105 -0.177,0.066 -0.267,0.261 -0.2,0.435 0.068,0.174 0.266,0.262 0.444,0.196 C -2.963,3.941 -0.396,2.965 0.332,0.428 0.383,0.249 0.276,0.063 0.094,0.013 0.062,0.004 0.031,0 0,0"
             style="fill:#fd664d;fill-opacity:1;fill-rule:nonzero;stroke:none"
             id="path450" />
        </g>
        <g
           id="g452"
           transform="translate(390.8281,307.6147)">
          <path
             d="m 0,0 c -0.063,0 -0.128,0.017 -0.186,0.054 -0.16,0.1 -0.206,0.309 -0.103,0.466 0.018,0.025 0.43,0.642 1.292,1.02 0.173,0.076 0.377,0 0.454,-0.17 C 1.535,1.2 1.457,1 1.284,0.924 0.617,0.632 0.293,0.159 0.29,0.154 0.224,0.054 0.113,0 0,0"
             style="fill:#fd664d;fill-opacity:1;fill-rule:nonzero;stroke:none"
             id="path454" />
        </g>
        <g
           id="g456"
           transform="translate(399.2285,298.2461)">
          <path
             d="m 0,0 v -7.097 c 0,0 2.16,-3.614 5.082,-3.86 2.918,-0.25 5.512,3.112 5.512,3.112 v 7.346 z"
             style="fill:#f9af8b;fill-opacity:1;fill-rule:nonzero;stroke:none"
             id="path458" />
        </g>
        <g
           id="g460"
           transform="translate(399.2285,298.2461)">
          <path
             d="M 0,0 V -3.149 C 1.961,-5.28 5.442,-5.812 10.594,-5.067 v 4.568 z"
             style="fill:#fc8664;fill-opacity:1;fill-rule:nonzero;stroke:none"
             id="path462" />
        </g>
        <g
           id="g464"
           transform="translate(417.457,311.8296)">
          <path
             d="m 0,0 c -0.109,-1.504 -0.29,-3.091 -0.588,-4.672 -0.971,-5.232 -3.158,-10.376 -7.873,-12.027 -10.673,-3.735 -14.487,5.235 -16.013,10.463 -0.167,0.579 -0.317,1.226 -0.451,1.916 -0.242,1.245 -0.43,2.635 -0.577,4.035 -0.175,1.699 -0.291,3.417 -0.362,4.927 -0.157,3.182 1.787,6.103 4.826,7.248 4.376,1.648 11.025,2.951 17.326,-0.549 C -1.384,10.051 0.075,7.657 0.127,5.038 0.154,3.614 0.134,1.875 0,0"
             style="fill:#f9af8b;fill-opacity:1;fill-rule:nonzero;stroke:none"
             id="path466" />
        </g>
        <g
           id="g468"
           transform="translate(410.3945,300.4893)">
          <path
             d="M 0,0 V -0.003 H -0.003 C -0.475,-0.446 -0.957,-0.817 -1.436,-1.069 -4.14,-2.502 -4.434,-2.285 -5.5,-2.332 c -1.088,-0.049 -2.585,0.265 -4.106,1.096 -0.472,0.261 -1.179,0.763 -1.953,1.457 0,0 -1.096,3.674 5.871,2.753 C 1.296,4.149 0.116,0.716 0,0 M 5.74,11.056 C 5.381,10.413 3.381,4.367 2.824,3.52 c -1.262,2.719 -7.35,0.743 -7.35,0.743 -0.383,-0.12 -0.78,-0.184 -1.179,-0.184 -0.387,0 -0.774,0.061 -1.146,0.174 l -0.031,0.01 c 0,0 -6.16,1.893 -7.374,-0.957 -0.563,0.843 -2.301,6.775 -2.625,7.75 h -1.558 c 0.146,-1.4 0.335,-2.79 0.577,-4.036 0.133,-0.69 0.284,-1.336 0.451,-1.916 1.525,-5.228 5.34,-14.198 16.013,-10.463 4.714,1.651 6.902,6.796 7.873,12.027 0.297,1.581 0.478,3.168 0.587,4.672 z"
             style="fill:#2e3052;fill-opacity:1;fill-rule:nonzero;stroke:none"
             id="path470" />
        </g>
        <g
           id="g472"
           transform="translate(409.3125,310.6782)">
          <path
             d="m 0,0 c 0,-0.758 0.398,-1.372 0.89,-1.372 0.492,0 0.89,0.614 0.89,1.372 0,0.757 -0.398,1.372 -0.89,1.372 C 0.398,1.372 0,0.757 0,0"
             style="fill:#2e3052;fill-opacity:1;fill-rule:nonzero;stroke:none"
             id="path474" />
        </g>
        <g
           id="g476"
           transform="translate(398.8203,310.7061)">
          <path
             d="M 0,0 C 0,-0.757 0.398,-1.372 0.891,-1.372 1.382,-1.372 1.78,-0.757 1.78,0 1.78,0.758 1.382,1.372 0.891,1.372 0.398,1.372 0,0.758 0,0"
             style="fill:#2e3052;fill-opacity:1;fill-rule:nonzero;stroke:none"
             id="path478" />
        </g>
        <g
           id="g480"
           transform="translate(413.7324,314.5518)">
          <path
             d="m 0,0 c 0,0 -3.41,1.32 -6.036,0.209 l 0.263,-1.431 c 0,0 3.854,0.32 5.795,-0.451 C 0.196,-1.123 0.222,-0.566 0,0"
             style="fill:#2e3052;fill-opacity:1;fill-rule:nonzero;stroke:none"
             id="path482" />
        </g>
        <g
           id="g484"
           transform="translate(396.7725,314.5518)">
          <path
             d="M 0,0 C 0,0 3.41,1.32 6.036,0.209 L 5.773,-1.222 c 0,0 -3.854,0.32 -5.795,-0.451 C -0.196,-1.123 -0.222,-0.566 0,0"
             style="fill:#2e3052;fill-opacity:1;fill-rule:nonzero;stroke:none"
             id="path486" />
        </g>
        <g
           id="g488"
           transform="translate(404.6152,305.3687)">
          <path
             d="m 0,0 c -0.58,0 -1.156,0.222 -1.245,0.257 -0.176,0.071 -0.261,0.267 -0.189,0.44 0.072,0.172 0.273,0.255 0.449,0.184 C -0.675,0.758 0.071,0.564 0.395,0.754 0.457,0.791 0.543,0.863 0.564,1.068 0.688,2.245 0.359,6.191 0.356,6.231 0.341,6.417 0.481,6.58 0.671,6.595 0.861,6.61 1.026,6.472 1.042,6.287 1.056,6.122 1.38,2.237 1.249,0.998 1.199,0.532 0.949,0.293 0.748,0.175 0.528,0.046 0.264,0 0,0"
             style="fill:#fc8664;fill-opacity:1;fill-rule:nonzero;stroke:none"
             id="path490" />
        </g>
        <g
           id="g492"
           transform="translate(409.3125,302.8979)">
          <path
             d="m 0,0 c -0.281,-1.386 -1.216,-3.937 -4.365,-3.937 -3.157,0 -4.042,2.331 -4.347,3.937 z"
             style="fill:#ffffff;fill-opacity:1;fill-rule:nonzero;stroke:none"
             id="path494" />
        </g>
        <g
           id="g496"
           transform="translate(391.9551,311.5444)">
          <path
             d="M 0,0 H 1.56 C 1.388,1.534 1.141,4.236 2.427,4.623 6.49,5.846 1.224,8.66 3.059,10.062 c 1.834,1.406 6.399,0.804 9.574,0.904 3.194,0.101 8.329,0.057 9.575,-0.226 1.249,-0.28 0.564,-2.312 0.106,-3.886 C 21.854,5.283 23.846,3.542 24.18,1.914 24.275,1.447 24.256,0.752 24.179,0 h 1.3 c 0.155,1.982 0.177,3.827 0.149,5.323 -0.051,2.619 -1.51,5.013 -3.837,6.304 C 15.49,15.127 8.842,13.822 4.465,12.174 1.426,11.031 -0.519,8.107 -0.363,4.928 -0.29,3.417 -0.176,1.699 0,0"
             style="fill:#2e3052;fill-opacity:1;fill-rule:nonzero;stroke:none"
             id="path498" />
        </g>
        <g
           id="g500"
           transform="translate(163.2798,138.8369)">
          <path
             d="m 0,0 h -79.165 c 1.309,7.941 7.608,13.712 14.951,13.688 l 24.631,-0.072 24.633,0.072 C -7.608,13.712 -1.308,7.941 0,0"
             style="fill:#ffffff;fill-opacity:1;fill-rule:nonzero;stroke:none"
             id="path502" />
        </g>
        <path
           d="m 94.655,66.164 h -4.313 v 73.81 h 4.313 z"
           style="fill:#ffffff;fill-opacity:1;fill-rule:nonzero;stroke:none"
           id="path504" />
        <path
           d="m 157.053,66.164 h -4.313 v 73.81 h 4.313 z"
           style="fill:#ffffff;fill-opacity:1;fill-rule:nonzero;stroke:none"
           id="path506" />
        <path
           d="M 152.74,115.133 H 94.656 v 4.159 h 58.084 z"
           style="fill:#dcedf9;fill-opacity:1;fill-rule:nonzero;stroke:none"
           id="path508" />
        <g
           id="g510"
           transform="translate(104.3159,238.1963)">
          <path
             d="M 0,0 C 0,0 -13.221,-17.633 -14.98,-33.01 -16.223,-43.87 0,-60.1 0,-60.1 l 5.588,2.782 -5.57,12.56 c -1.983,6.117 -4.423,8.535 -2.621,14.708 l 4.035,8.699 z"
             style="fill:#0077eb;fill-opacity:1;fill-rule:nonzero;stroke:none"
             id="path512" />
        </g>
        <g
           id="g514"
           transform="translate(145.9785,238.4619)">
          <path
             d="M 0,0 C 0,0 13.05,-18.801 14.13,-34.241 15.063,-47.553 -0.913,-60.365 -0.913,-60.365 l -4.613,2.297 6.389,12.69 c 1.982,6.117 2.925,9.806 0.222,16.462 l -3.429,7.3 z"
             style="fill:#0077eb;fill-opacity:1;fill-rule:nonzero;stroke:none"
             id="path516" />
        </g>
        <g
           id="g518"
           transform="translate(107.0093,198.04)">
          <path
             d="m 0,0 -8.764,-27.879 c 0,0 37.943,-4.84 49.547,-1.708 l -5.894,30.364 4.08,39.645 C 33.291,42.815 27.271,44.344 21.124,44.787 12.151,45.436 6.483,43.955 -2.693,40.156 Z"
             style="fill:#008eff;fill-opacity:1;fill-rule:nonzero;stroke:none"
             id="path520" />
        </g>
        <g
           id="g522"
           transform="translate(116.4946,229.79)">
          <path
             d="m 0,0 c 8.371,0.981 16.159,6.73 16.513,6.995 0.206,0.154 0.249,0.447 0.094,0.653 C 16.453,7.855 16.16,7.897 15.954,7.744 15.862,7.676 6.697,0.915 -2.117,0.795 -2.379,0.794 -2.582,0.579 -2.578,0.321 -2.575,0.063 -2.362,-0.144 -2.104,-0.14 -1.401,-0.13 -0.699,-0.081 0,0"
             style="fill:#0077eb;fill-opacity:1;fill-rule:nonzero;stroke:none"
             id="path524" />
        </g>
        <g
           id="g526"
           transform="translate(123.2388,80.4248)">
          <path
             d="m 0,0 0.684,-6.155 6.547,-0.15 0.549,5.108 z"
             style="fill:#f9af8b;fill-opacity:1;fill-rule:nonzero;stroke:none"
             id="path528" />
        </g>
        <g
           id="g530"
           transform="translate(122.2119,178.0215)">
          <path
             d="m 0,0 c 0,0 -16.954,0.932 -22.696,-3.767 -5.742,-4.698 -4.588,-18.18 1.262,-21.862 5.851,-3.681 15.822,-10.914 15.822,-10.914 l 6.343,-63.061 8.382,-0.284 c 0,0 7.723,63.345 3.807,75.614 C 9.005,-12.007 0,0 0,0"
             style="fill:#001030;fill-opacity:1;fill-rule:nonzero;stroke:none"
             id="path532" />
        </g>
        <g
           id="g534"
           transform="translate(132.0981,81.2617)">
          <path
             d="m 0,0 c 0.456,-1.473 0.239,-2.9 -0.216,-4.318 l -9.644,0.214 c -0.34,1.405 -0.391,2.815 -0.187,4.23 z"
             style="fill:#2e3052;fill-opacity:1;fill-rule:nonzero;stroke:none"
             id="path536" />
        </g>
        <g
           id="g538"
           transform="translate(146.2036,178.498)">
          <path
             d="m 0,0 h -44.49 l -4.112,24.044 c -0.356,2.082 1.248,3.983 3.361,3.983 H 0.751 c 2.112,0 3.716,-1.901 3.36,-3.983 z"
             style="fill:#ffffff;fill-opacity:1;fill-rule:nonzero;stroke:none"
             id="path540" />
        </g>
        <g
           id="g542"
           transform="translate(142.6265,173.2695)">
          <path
             d="m 0,0 h -37.292 c -2,0 -3.621,1.621 -3.621,3.621 V 5.229 H 3.621 V 3.621 C 3.621,1.621 2,0 0,0"
             style="fill:#dcedf9;fill-opacity:1;fill-rule:nonzero;stroke:none"
             id="path544" />
        </g>
        <g
           id="g546"
           transform="translate(127.9224,191.5205)">
          <path
             d="m 0,0 c 0,-2.135 -1.73,-3.864 -3.864,-3.864 -2.134,0 -3.865,1.729 -3.865,3.864 0,2.134 1.731,3.864 3.865,3.864 C -1.73,3.864 0,2.134 0,0"
             style="fill:#dcedf9;fill-opacity:1;fill-rule:nonzero;stroke:none"
             id="path548" />
        </g>
        <g
           id="g550"
           transform="translate(95.4312,97.7383)">
          <path
             d="m 0,0 -1.451,-6.093 5.875,-1.16 2.393,5.44 z"
             style="fill:#f9af8b;fill-opacity:1;fill-rule:nonzero;stroke:none"
             id="path552" />
        </g>
        <g
           id="g554"
           transform="translate(130.8252,179.0654)">
          <path
             d="m 0,0 c 0,0 -11.354,3.916 -18.01,-4.307 -6.657,-8.221 -17.802,-77.629 -17.802,-77.629 l 7.641,-3.153 24.562,61.641 c 0,0 20.002,-11.415 22.424,4.812 C 20.733,-5.796 0,0 0,0"
             style="fill:#2e3052;fill-opacity:1;fill-rule:nonzero;stroke:none"
             id="path556" />
        </g>
        <g
           id="g558"
           transform="translate(104.3853,97.1582)">
          <path
             d="m 0,0 c -0.028,-1.592 -0.701,-2.922 -1.605,-4.167 l -9.392,3.32 c 0.12,1.489 0.524,2.888 1.181,4.21 z"
             style="fill:#524e84;fill-opacity:1;fill-rule:nonzero;stroke:none"
             id="path560" />
        </g>
        <g
           id="g562"
           transform="translate(98.4634,92.6484)">
          <path
             d="m 0,0 c 0,0 -3.561,1.807 -4.609,2.013 -1.049,0.207 -9.705,-5.935 -12.158,-5.875 -4.447,0.108 -5.871,-6.422 -3.343,-7.311 7.311,-2.57 20.843,-2.252 20.843,-2.252 0,0 3.005,8.124 3.062,10.866 C 3.852,0.183 1.932,-1.229 0,0"
             style="fill:#008eff;fill-opacity:1;fill-rule:nonzero;stroke:none"
             id="path564" />
        </g>
        <g
           id="g566"
           transform="translate(90.6865,86.8447)">
          <path
             d="M 0,0 C 0.127,-0.058 0.278,-0.066 0.418,-0.013 0.691,0.093 0.823,0.396 0.714,0.664 0.678,0.754 -0.199,2.876 -1.64,3.86 -3.556,5.174 -5.32,4.262 -5.395,4.222 -5.652,4.086 -5.746,3.769 -5.604,3.515 -5.463,3.261 -5.14,3.166 -4.882,3.303 -4.833,3.327 -3.608,3.938 -2.243,3.005 -1.069,2.202 -0.281,0.302 -0.274,0.283 -0.22,0.153 -0.12,0.055 0,0"
             style="fill:#ffffff;fill-opacity:1;fill-rule:nonzero;stroke:none"
             id="path568" />
        </g>
        <g
           id="g570"
           transform="translate(92.4614,88.0762)">
          <path
             d="M 0,0 C 0.127,-0.058 0.278,-0.066 0.418,-0.013 0.691,0.093 0.824,0.396 0.714,0.664 0.678,0.754 -0.199,2.876 -1.639,3.861 -3.557,5.175 -5.32,4.263 -5.395,4.223 -5.652,4.086 -5.746,3.77 -5.604,3.515 -5.463,3.261 -5.139,3.166 -4.881,3.304 -4.833,3.328 -3.607,3.938 -2.243,3.006 -1.064,2.199 -0.282,0.303 -0.274,0.283 -0.221,0.153 -0.12,0.055 0,0"
             style="fill:#ffffff;fill-opacity:1;fill-rule:nonzero;stroke:none"
             id="path572" />
        </g>
        <g
           id="g574"
           transform="translate(88.3911,85.9678)">
          <path
             d="M 0,0 C 0.128,-0.059 0.278,-0.067 0.418,-0.014 0.691,0.092 0.824,0.395 0.714,0.664 0.678,0.754 -0.199,2.875 -1.64,3.86 -3.557,5.175 -5.32,4.262 -5.395,4.222 -5.652,4.085 -5.746,3.769 -5.604,3.515 -5.463,3.261 -5.139,3.165 -4.881,3.303 -4.833,3.327 -3.607,3.938 -2.243,3.005 -1.064,2.198 -0.281,0.302 -0.274,0.283 -0.221,0.152 -0.12,0.055 0,0"
             style="fill:#ffffff;fill-opacity:1;fill-rule:nonzero;stroke:none"
             id="path576" />
        </g>
        <g
           id="g578"
           transform="translate(126.4482,74.5273)">
          <path
             d="m 0,0 c 0,0 3.645,1.105 4.664,1.126 1.018,0.02 8.129,-7.186 10.443,-7.536 4.196,-0.637 4.449,-7.007 1.927,-7.422 -7.294,-1.201 -19.951,1.345 -19.951,1.345 0,0 -1.474,8.129 -1.072,10.714 C -3.587,0.812 -2.018,-0.834 0,0"
             style="fill:#008eff;fill-opacity:1;fill-rule:nonzero;stroke:none"
             id="path580" />
        </g>
        <g
           id="g582"
           transform="translate(132.7896,67.7861)">
          <path
             d="M 0,0 C -0.129,-0.033 -0.272,-0.017 -0.396,0.057 -0.634,0.201 -0.708,0.508 -0.561,0.742 -0.511,0.82 0.664,2.667 2.181,3.354 4.198,4.269 5.705,3.119 5.768,3.069 5.987,2.898 6.022,2.585 5.847,2.37 5.673,2.155 5.353,2.12 5.133,2.291 5.092,2.322 4.043,3.099 2.605,2.449 1.37,1.891 0.314,0.236 0.304,0.22 0.232,0.106 0.122,0.031 0,0"
             style="fill:#ffffff;fill-opacity:1;fill-rule:nonzero;stroke:none"
             id="path584" />
        </g>
        <g
           id="g586"
           transform="translate(131.3271,69.2373)">
          <path
             d="M 0,0 C -0.129,-0.033 -0.272,-0.018 -0.396,0.057 -0.634,0.201 -0.708,0.508 -0.561,0.742 -0.512,0.82 0.664,2.668 2.18,3.354 4.2,4.27 5.704,3.12 5.768,3.07 5.987,2.899 6.022,2.586 5.847,2.371 5.672,2.155 5.352,2.12 5.133,2.292 5.092,2.322 4.042,3.1 2.605,2.45 1.364,1.889 0.314,0.237 0.304,0.221 0.232,0.106 0.122,0.031 0,0"
             style="fill:#ffffff;fill-opacity:1;fill-rule:nonzero;stroke:none"
             id="path588" />
        </g>
        <g
           id="g590"
           transform="translate(134.7998,66.5801)">
          <path
             d="M 0,0 C -0.129,-0.033 -0.272,-0.017 -0.395,0.058 -0.634,0.202 -0.708,0.509 -0.561,0.743 -0.511,0.821 0.664,2.668 2.181,3.354 4.2,4.271 5.705,3.12 5.768,3.071 5.987,2.899 6.022,2.586 5.847,2.371 5.673,2.156 5.353,2.121 5.133,2.293 5.092,2.323 4.042,3.1 2.605,2.451 1.364,1.889 0.314,0.237 0.304,0.221 0.232,0.107 0.122,0.032 0,0"
             style="fill:#ffffff;fill-opacity:1;fill-rule:nonzero;stroke:none"
             id="path592" />
        </g>
        <g
           id="g594"
           transform="translate(136.3462,277.9604)">
          <path
             d="M 0,0 C 0,0 5.396,-8.357 4.804,-17.062 4.213,-25.767 5.6,-35.816 -2.19,-35.375 c -7.789,0.443 -21.683,-3.123 -26.099,3.658 C -32.705,-24.937 0,0 0,0"
             style="fill:#2e3052;fill-opacity:1;fill-rule:nonzero;stroke:none"
             id="path596" />
        </g>
        <g
           id="g598"
           transform="translate(138.3457,262.5942)">
          <path
             d="m 0,0 c 0,0 1.4,-12.618 -4.587,-16.092 -5.987,-3.474 -10.321,0.404 -10.321,0.404 0,0 12.621,17.588 14.908,15.688"
             style="fill:#000b29;fill-opacity:1;fill-rule:nonzero;stroke:none"
             id="path600" />
        </g>
        <g
           id="g602"
           transform="translate(113.4751,262.6528)">
          <path
             d="m 0,0 c 0,0 -2.15,2.866 -3.749,0.496 -1.598,-2.371 0.662,-9.371 4.576,-7.663 z"
             style="fill:#fc8664;fill-opacity:1;fill-rule:nonzero;stroke:none"
             id="path604" />
        </g>
        <g
           id="g606"
           transform="translate(113.4478,257.6499)">
          <path
             d="m 0,0 c -0.145,0 -0.278,0.096 -0.318,0.242 -0.607,2.161 -2.847,3.037 -2.869,3.046 -0.17,0.065 -0.256,0.256 -0.191,0.426 0.064,0.171 0.255,0.257 0.425,0.192 C -2.848,3.867 -0.38,2.909 0.318,0.42 0.368,0.244 0.265,0.062 0.089,0.012 0.059,0.004 0.029,0 0,0"
             style="fill:#fd664d;fill-opacity:1;fill-rule:nonzero;stroke:none"
             id="path608" />
        </g>
        <g
           id="g610"
           transform="translate(111.187,258.7388)">
          <path
             d="m 0,0 c -0.061,0 -0.123,0.017 -0.179,0.053 -0.153,0.099 -0.197,0.303 -0.099,0.457 0.017,0.025 0.413,0.63 1.242,1 0.166,0.075 0.362,0 0.437,-0.166 C 1.475,1.177 1.401,0.981 1.234,0.907 0.593,0.62 0.281,0.156 0.278,0.152 0.215,0.053 0.109,0 0,0"
             style="fill:#fd664d;fill-opacity:1;fill-rule:nonzero;stroke:none"
             id="path612" />
        </g>
        <g
           id="g614"
           transform="translate(135.6313,262.6528)">
          <path
             d="M 0,0 C 0,0 2.15,2.866 3.749,0.496 5.347,-1.875 3.087,-8.875 -0.827,-7.167 Z"
             style="fill:#fc8664;fill-opacity:1;fill-rule:nonzero;stroke:none"
             id="path616" />
        </g>
        <g
           id="g618"
           transform="translate(135.6587,257.6499)">
          <path
             d="M 0,0 C 0.145,0 0.278,0.096 0.318,0.242 0.925,2.403 3.165,3.279 3.187,3.288 3.357,3.353 3.443,3.544 3.378,3.714 3.314,3.885 3.123,3.971 2.953,3.906 2.848,3.867 0.38,2.909 -0.318,0.42 -0.368,0.244 -0.265,0.062 -0.089,0.012 -0.059,0.004 -0.029,0 0,0"
             style="fill:#fd664d;fill-opacity:1;fill-rule:nonzero;stroke:none"
             id="path620" />
        </g>
        <g
           id="g622"
           transform="translate(137.9194,258.7388)">
          <path
             d="m 0,0 c 0.061,0 0.124,0.017 0.179,0.053 0.154,0.099 0.197,0.303 0.099,0.457 -0.017,0.025 -0.413,0.63 -1.242,1 -0.166,0.075 -0.362,0 -0.437,-0.166 -0.074,-0.167 0,-0.363 0.167,-0.437 C -0.593,0.62 -0.281,0.156 -0.278,0.152 -0.215,0.053 -0.109,0 0,0"
             style="fill:#fd664d;fill-opacity:1;fill-rule:nonzero;stroke:none"
             id="path624" />
        </g>
        <g
           id="g626"
           transform="translate(129.8452,249.5483)">
          <path
             d="m 0,0 v -6.962 c 0,0 -2.076,-3.546 -4.884,-3.788 -2.805,-0.245 -5.298,3.053 -5.298,3.053 v 7.207 z"
             style="fill:#f9af8b;fill-opacity:1;fill-rule:nonzero;stroke:none"
             id="path628" />
        </g>
        <g
           id="g630"
           transform="translate(129.8452,249.5483)">
          <path
             d="M 0,0 V -3.089 C -1.884,-5.18 -5.229,-5.92 -10.181,-5.19 l -0.001,4.7 z"
             style="fill:#fc8664;fill-opacity:1;fill-rule:nonzero;stroke:none"
             id="path632" />
        </g>
        <g
           id="g634"
           transform="translate(137.1855,267.4287)">
          <path
             d="m 0,0 c -0.129,-2.706 -0.387,-6.089 -0.903,-8.794 -0.129,-0.675 -0.274,-1.31 -0.436,-1.879 -1.466,-5.13 -5.13,-13.929 -15.39,-10.264 -4.532,1.618 -6.632,6.665 -7.568,11.798 -0.635,3.487 -0.731,7.009 -0.684,9.526 0.049,2.57 1.452,4.918 3.688,6.185 6.056,3.433 12.446,2.153 16.653,0.536 C -1.72,5.987 0.149,3.119 0,0"
             style="fill:#f9af8b;fill-opacity:1;fill-rule:nonzero;stroke:none"
             id="path636" />
        </g>
        <g
           id="g638"
           transform="translate(120.0352,261.5776)">
          <path
             d="m 0,0 c 0,-0.743 -0.383,-1.346 -0.856,-1.346 -0.472,0 -0.855,0.603 -0.855,1.346 0,0.743 0.383,1.346 0.855,1.346 C -0.383,1.346 0,0.743 0,0"
             style="fill:#2e3052;fill-opacity:1;fill-rule:nonzero;stroke:none"
             id="path640" />
        </g>
        <g
           id="g642"
           transform="translate(130.5996,261.5776)">
          <path
             d="m 0,0 c 0,-0.743 -0.383,-1.346 -0.855,-1.346 -0.473,0 -0.856,0.603 -0.856,1.346 0,0.743 0.383,1.346 0.856,1.346 C -0.383,1.346 0,0.743 0,0"
             style="fill:#2e3052;fill-opacity:1;fill-rule:nonzero;stroke:none"
             id="path644" />
        </g>
        <g
           id="g646"
           transform="translate(117.4849,266.0552)">
          <path
             d="M 0,0 C 0.711,0.201 2.146,0.544 3.66,0.548 4.058,0.549 4.363,0.195 4.293,-0.197 L 4.291,-0.207 C 4.235,-0.52 3.955,-0.741 3.637,-0.727 2.607,-0.678 -0.098,-0.823 -1.375,-1.341 -1.4,-1.119 -1.269,-0.876 -1.083,-0.66 -0.802,-0.333 -0.416,-0.117 0,0"
             style="fill:#2e3052;fill-opacity:1;fill-rule:nonzero;stroke:none"
             id="path648" />
        </g>
        <g
           id="g650"
           transform="translate(131.3081,266.0278)">
          <path
             d="M 0,0 C -0.711,0.201 -2.146,0.544 -3.66,0.548 -4.058,0.549 -4.363,0.195 -4.293,-0.197 l 0.002,-0.01 c 0.056,-0.313 0.336,-0.535 0.654,-0.52 1.03,0.048 3.735,-0.097 5.012,-0.614 C 1.4,-1.119 1.269,-0.876 1.083,-0.66 0.802,-0.333 0.415,-0.117 0,0"
             style="fill:#2e3052;fill-opacity:1;fill-rule:nonzero;stroke:none"
             id="path652" />
        </g>
        <g
           id="g654"
           transform="translate(124.668,256.1045)">
          <path
             d="m 0,0 c -0.253,0 -0.507,0.044 -0.719,0.171 -0.193,0.116 -0.434,0.35 -0.481,0.808 -0.126,1.215 0.185,5.026 0.199,5.188 0.015,0.182 0.174,0.317 0.356,0.302 0.183,-0.015 0.318,-0.175 0.303,-0.357 -0.003,-0.038 -0.32,-3.91 -0.2,-5.065 0.021,-0.201 0.103,-0.272 0.163,-0.308 0.31,-0.186 1.027,0.004 1.326,0.125 C 1.117,0.934 1.31,0.852 1.378,0.683 1.447,0.514 1.366,0.321 1.197,0.252 1.112,0.217 0.558,0 0,0"
             style="fill:#fc8664;fill-opacity:1;fill-rule:nonzero;stroke:none"
             id="path656" />
        </g>
        <g
           id="g658"
           transform="translate(120.4678,254.0156)">
          <path
             d="m 0,0 c 0.25,-1.258 1.081,-3.573 3.881,-3.573 2.806,0 3.594,2.115 3.864,3.573 z"
             style="fill:#ffffff;fill-opacity:1;fill-rule:nonzero;stroke:none"
             id="path660" />
        </g>
        <g
           id="g662"
           transform="translate(124.3086,248.5127)">
          <path
             d="m 0,0 c -0.808,0 -1.521,0.436 -1.551,0.454 -0.156,0.096 -0.204,0.3 -0.108,0.455 0.096,0.155 0.299,0.203 0.455,0.108 C -1.198,1.014 -0.616,0.662 0,0.662 0.667,0.662 1.264,1.015 1.271,1.019 1.427,1.112 1.63,1.062 1.724,0.906 1.818,0.75 1.769,0.547 1.612,0.452 1.582,0.434 0.856,0 0,0"
             style="fill:#fc8664;fill-opacity:1;fill-rule:nonzero;stroke:none"
             id="path664" />
        </g>
        <g
           id="g666"
           transform="translate(138.5176,267.9678)">
          <path
             d="m 0,0 c -0.106,-0.301 -0.401,-0.494 -0.796,-0.61 0.028,-0.729 -0.048,-1.607 -0.12,-2.448 -0.408,-4.78 -1.614,-5.62 -1.887,-4.438 -0.179,0.786 -0.169,5.288 -0.082,6.755 -0.945,0.063 -1.752,0.22 -1.752,0.22 L -5.746,4.12 -6.134,-0.463 c -1.663,-0.579 -5.543,0.348 -5.543,0.348 l -1.302,4.574 -0.805,-4.401 c -2.495,-1.215 -5.612,-0.406 -5.612,-0.406 l -0.717,4.747 -1.654,-4.747 c 0,0 -5.322,-1.909 -5.379,0 -0.036,1.111 0.778,4.24 1.465,6.663 0.75,2.644 2.486,4.877 4.834,6.136 6.602,3.544 13.582,1.659 15.977,0.229 C 0.208,9.648 0,0 0,0"
             style="fill:#2e3052;fill-opacity:1;fill-rule:nonzero;stroke:none"
             id="path668" />
        </g>
        <g
           id="g670"
           transform="translate(114.3022,277.6074)">
          <path
             d="m 0,0 c 0,0 -4.381,-5.211 -5.823,-14.518 -1.441,-9.307 -3.437,-16.183 2.171,-19.256 6.07,-3.326 5.545,3.496 5.457,5.349 C 1.717,-26.571 -3.446,-21.503 0,-7.23 1.112,-2.623 0,0 0,0"
             style="fill:#2e3052;fill-opacity:1;fill-rule:nonzero;stroke:none"
             id="path672" />
        </g>
        <g
           id="g674"
           transform="translate(113.2783,258.375)">
          <path
             d="m 0,0 v -0.011 c 0.002,-0.069 0.006,-0.439 0.033,-1.018 0.013,-0.359 0.035,-0.796 0.069,-1.293 0.206,-3.135 0.816,-8.55 2.607,-10.428 0.708,-0.743 2.072,-1.116 3.677,-1.267 v 2.464 c -1.692,0.803 -3.011,2.122 -4.033,3.745 -0.632,1.369 -1.721,3.511 -2.231,6.879 z"
             style="fill:#000b29;fill-opacity:1;fill-rule:nonzero;stroke:none"
             id="path676" />
        </g>
        <g
           id="g678"
           transform="translate(137.2646,255.3296)">
          <path
             d="m 0,0 c 0,-0.428 -0.347,-0.775 -0.775,-0.775 -0.428,0 -0.775,0.347 -0.775,0.775 0,0.428 0.347,0.775 0.775,0.775 C -0.347,0.775 0,0.428 0,0"
             style="fill:#ffffff;fill-opacity:1;fill-rule:nonzero;stroke:none"
             id="path680" />
        </g>
        <g
           id="g682"
           transform="translate(370.749,322.0625)">
          <path
             d="m 0,0 h -19.008 c -1.459,0 -2.641,1.183 -2.641,2.642 V 21.65 c 0,1.459 1.182,2.642 2.641,2.642 H 0 c 1.46,0 2.643,-1.183 2.643,-2.642 V 2.642 C 2.643,1.183 1.46,0 0,0"
             style="fill:#ffaa01;fill-opacity:1;fill-rule:nonzero;stroke:none"
             id="path684" />
        </g>
        <g
           id="g686"
           transform="translate(369.5166,334.2085)">
          <path
             d="m 0,0 c 0,-2.001 -0.711,-3.836 -1.894,-5.267 -1.516,-1.835 -3.81,-3.004 -6.377,-3.004 -2.567,0 -4.86,1.169 -6.377,3.004 -1.183,1.431 -1.894,3.266 -1.894,5.267 0,4.568 3.703,8.271 8.271,8.271 C -3.703,8.271 0,4.568 0,0"
             style="fill:#fdcc50;fill-opacity:1;fill-rule:nonzero;stroke:none"
             id="path688" />
        </g>
        <g
           id="g690"
           transform="translate(367.623,328.9419)">
          <path
             d="m 0,0 c -1.517,-1.835 -3.811,-3.004 -6.378,-3.004 -2.566,0 -4.859,1.169 -6.377,3.004 l 0.111,0.219 c 0.179,0.354 0.427,0.664 0.725,0.914 0.297,0.251 0.645,0.442 1.024,0.557 1.347,0.412 2.597,0.827 3.297,2.03 -0.852,0.402 -1.422,1.204 -1.659,1.77 -0.936,-0.2 -1.608,1.532 -1.108,1.991 0.19,0.174 0.384,0.223 0.552,0.213 0.155,1.761 1.633,3.335 3.435,3.335 1.802,0 3.281,-1.574 3.436,-3.335 0.169,0.01 0.362,-0.039 0.551,-0.213 C -1.89,7.022 -2.563,5.291 -3.498,5.49 -3.702,4.858 -4.404,4.096 -5.037,3.83 -4.336,2.626 -3.208,2.102 -1.86,1.69 -1.48,1.575 -1.133,1.384 -0.836,1.133 -0.538,0.883 -0.29,0.573 -0.111,0.219 Z"
             style="fill:#ffffff;fill-opacity:1;fill-rule:nonzero;stroke:none"
             id="path692" />
        </g>
        <g
           id="g694"
           transform="translate(55.125,192.8926)">
          <path
             d="m 0,0 h -19.008 c -1.459,0 -2.642,1.183 -2.642,2.642 v 19.007 c 0,1.459 1.183,2.642 2.642,2.642 H 0 c 1.459,0 2.642,-1.183 2.642,-2.642 V 2.642 C 2.642,1.183 1.459,0 0,0"
             style="fill:#ffaa01;fill-opacity:1;fill-rule:nonzero;stroke:none"
             id="path696" />
        </g>
        <g
           id="g698"
           transform="translate(45.6201,206.1787)">
          <path
             d="m 0,0 c -1.239,0 -2.245,1.004 -2.245,2.245 0,1.24 1.006,2.244 2.245,2.244 1.241,0 2.245,-1.004 2.245,-2.244 C 2.245,1.004 1.241,0 0,0 m 0.365,6.913 c -3.102,0.207 -5.682,-2.25 -5.682,-5.304 0,-0.99 0.271,-1.917 0.744,-2.712 0.703,-1.185 1.429,-2.358 2.097,-3.564 l 2.52,-4.54 3.842,6.932 C 4.112,-1.87 4.355,-1.477 4.59,-1.077 5.076,-0.255 5.343,0.711 5.317,1.739 5.253,4.462 3.082,6.734 0.365,6.913"
             style="fill:#ffffff;fill-opacity:1;fill-rule:nonzero;stroke:none"
             id="path700" />
        </g>
        <g
           id="g702"
           transform="translate(454.2646,304.918)">
          <path
             d="M 0,0 C 2.052,0 3.722,1.669 3.722,3.722 3.722,5.774 2.052,7.443 0,7.443 -2.052,7.443 -3.722,5.774 -3.722,3.722 -3.722,1.669 -2.052,0 0,0 m 0,9.144 c 2.99,0 5.423,-2.432 5.423,-5.422 0,-2.991 -2.433,-5.423 -5.423,-5.423 -2.99,0 -5.423,2.432 -5.423,5.423 0,2.99 2.433,5.422 5.423,5.422"
             style="fill:#008eff;fill-opacity:1;fill-rule:nonzero;stroke:none"
             id="path704" />
        </g>
        <g
           id="g706"
           transform="translate(434.7441,323.9419)">
          <path
             d="M 0,0 C 2.052,0 3.721,1.669 3.721,3.722 3.721,5.773 2.052,7.443 0,7.443 -2.053,7.443 -3.722,5.773 -3.722,3.722 -3.722,1.669 -2.053,0 0,0 m 0,9.144 c 2.989,0 5.422,-2.433 5.422,-5.422 0,-2.991 -2.433,-5.423 -5.422,-5.423 -2.99,0 -5.423,2.432 -5.423,5.423 0,2.989 2.433,5.422 5.423,5.422"
             style="fill:#ffaa01;fill-opacity:1;fill-rule:nonzero;stroke:none"
             id="path708" />
        </g>
        <g
           id="g710"
           transform="translate(428.0439,350.707)">
          <path
             d="m 0,0 c 0.47,0 0.851,-0.381 0.851,-0.851 v -3.751 c 0,-0.47 -0.381,-0.851 -0.851,-0.851 -0.47,0 -0.851,0.381 -0.851,0.851 v 3.751 C -0.851,-0.381 -0.47,0 0,0"
             style="fill:#008eff;fill-opacity:1;fill-rule:nonzero;stroke:none"
             id="path712" />
        </g>
        <g
           id="g714"
           transform="translate(428.0439,357.271)">
          <path
             d="m 0,0 c 0.47,0 0.851,-0.381 0.851,-0.851 v -3.751 c 0,-0.469 -0.381,-0.85 -0.851,-0.85 -0.47,0 -0.851,0.381 -0.851,0.85 v 3.751 C -0.851,-0.381 -0.47,0 0,0"
             style="fill:#008eff;fill-opacity:1;fill-rule:nonzero;stroke:none"
             id="path716" />
        </g>
        <g
           id="g718"
           transform="translate(422.7793,352.1133)">
          <path
             d="m 0,0 h 3.369 c 0.47,0 0.851,-0.38 0.851,-0.851 0,-0.469 -0.381,-0.85 -0.851,-0.85 H 0 c -0.47,0 -0.851,0.381 -0.851,0.85 C -0.851,-0.38 -0.47,0 0,0"
             style="fill:#008eff;fill-opacity:1;fill-rule:nonzero;stroke:none"
             id="path720" />
        </g>
        <g
           id="g722"
           transform="translate(429.9395,352.1133)">
          <path
             d="m 0,0 h 3.37 c 0.47,0 0.851,-0.38 0.851,-0.851 0,-0.469 -0.381,-0.85 -0.851,-0.85 H 0 c -0.47,0 -0.851,0.381 -0.851,0.85 C -0.851,-0.38 -0.47,0 0,0"
             style="fill:#008eff;fill-opacity:1;fill-rule:nonzero;stroke:none"
             id="path724" />
        </g>
        <g
           id="g726"
           transform="translate(457.9863,329.688)">
          <path
             d="m 0,0 c 0.47,0 0.851,-0.381 0.851,-0.851 v -3.751 c 0,-0.469 -0.381,-0.85 -0.851,-0.85 -0.47,0 -0.851,0.381 -0.851,0.85 v 3.751 C -0.851,-0.381 -0.47,0 0,0"
             style="fill:#ffaa01;fill-opacity:1;fill-rule:nonzero;stroke:none"
             id="path728" />
        </g>
        <g
           id="g730"
           transform="translate(457.9863,336.2524)">
          <path
             d="m 0,0 c 0.47,0 0.851,-0.381 0.851,-0.851 v -3.751 c 0,-0.469 -0.381,-0.85 -0.851,-0.85 -0.47,0 -0.851,0.381 -0.851,0.85 v 3.751 C -0.851,-0.381 -0.47,0 0,0"
             style="fill:#ffaa01;fill-opacity:1;fill-rule:nonzero;stroke:none"
             id="path732" />
        </g>
        <g
           id="g734"
           transform="translate(452.7207,331.0947)">
          <path
             d="m 0,0 h 3.37 c 0.47,0 0.851,-0.381 0.851,-0.851 0,-0.469 -0.381,-0.85 -0.851,-0.85 H 0 c -0.47,0 -0.851,0.381 -0.851,0.85 C -0.851,-0.381 -0.47,0 0,0"
             style="fill:#ffaa01;fill-opacity:1;fill-rule:nonzero;stroke:none"
             id="path736" />
        </g>
        <g
           id="g738"
           transform="translate(459.8818,331.0947)">
          <path
             d="m 0,0 h 3.369 c 0.47,0 0.851,-0.381 0.851,-0.851 0,-0.469 -0.381,-0.85 -0.851,-0.85 H 0 c -0.47,0 -0.851,0.381 -0.851,0.85 C -0.851,-0.381 -0.47,0 0,0"
             style="fill:#ffaa01;fill-opacity:1;fill-rule:nonzero;stroke:none"
             id="path740" />
        </g>
        <g
           id="g742"
           transform="translate(118.4546,381.6025)">
          <path
             d="m 0,0 c -2.052,0 -3.721,-1.669 -3.721,-3.722 0,-2.051 1.669,-3.721 3.721,-3.721 2.052,0 3.721,1.67 3.721,3.721 C 3.721,-1.669 2.052,0 0,0 m 0,1.701 c 2.99,0 5.422,-2.432 5.422,-5.423 0,-2.989 -2.432,-5.422 -5.422,-5.422 -2.99,0 -5.423,2.433 -5.423,5.422 0,2.991 2.433,5.423 5.423,5.423"
             style="fill:#008eff;fill-opacity:1;fill-rule:nonzero;stroke:none"
             id="path744" />
        </g>
        <g
           id="g746"
           transform="translate(98.7056,399.5142)">
          <path
             d="m 0,0 c -2.052,0 -3.722,-1.669 -3.722,-3.721 0,-2.052 1.67,-3.722 3.722,-3.722 2.052,0 3.721,1.67 3.721,3.722 C 3.721,-1.669 2.052,0 0,0 m 0,1.701 c 2.99,0 5.422,-2.432 5.422,-5.422 0,-2.99 -2.432,-5.423 -5.422,-5.423 -2.99,0 -5.423,2.433 -5.423,5.423 0,2.99 2.433,5.422 5.423,5.422"
             style="fill:#ffaa01;fill-opacity:1;fill-rule:nonzero;stroke:none"
             id="path748" />
        </g>
        <g
           id="g750"
           transform="translate(91.5522,370.2192)">
          <path
             d="m 0,0 c 0,-0.469 0.38,-0.85 0.851,-0.85 h 3.751 c 0.469,0 0.85,0.381 0.85,0.85 0,0.47 -0.381,0.851 -0.85,0.851 H 0.851 C 0.38,0.851 0,0.47 0,0"
             style="fill:#008eff;fill-opacity:1;fill-rule:nonzero;stroke:none"
             id="path752" />
        </g>
        <g
           id="g754"
           transform="translate(84.9878,370.2192)">
          <path
             d="m 0,0 c 0,-0.469 0.381,-0.85 0.851,-0.85 h 3.751 c 0.469,0 0.85,0.381 0.85,0.85 0,0.47 -0.381,0.851 -0.85,0.851 H 0.851 C 0.381,0.851 0,0.47 0,0"
             style="fill:#008eff;fill-opacity:1;fill-rule:nonzero;stroke:none"
             id="path756" />
        </g>
        <g
           id="g758"
           transform="translate(90.1455,375.4849)">
          <path
             d="m 0,0 v -3.37 c 0,-0.469 0.38,-0.85 0.851,-0.85 0.469,0 0.85,0.381 0.85,0.85 V 0 C 1.701,0.469 1.32,0.851 0.851,0.851 0.38,0.851 0,0.469 0,0"
             style="fill:#008eff;fill-opacity:1;fill-rule:nonzero;stroke:none"
             id="path760" />
        </g>
        <g
           id="g762"
           transform="translate(90.1455,368.3237)">
          <path
             d="m 0,0 v -3.37 c 0,-0.469 0.38,-0.85 0.851,-0.85 0.469,0 0.85,0.381 0.85,0.85 V 0 C 1.701,0.47 1.32,0.851 0.851,0.851 0.38,0.851 0,0.47 0,0"
             style="fill:#008eff;fill-opacity:1;fill-rule:nonzero;stroke:none"
             id="path764" />
        </g>
        <g
           id="g766"
           transform="translate(131.2734,399.5142)">
          <path
             d="m 0,0 c 0,-0.47 0.381,-0.851 0.851,-0.851 h 3.751 c 0.469,0 0.85,0.381 0.85,0.851 0,0.47 -0.381,0.851 -0.85,0.851 H 0.851 C 0.381,0.851 0,0.47 0,0"
             style="fill:#ffaa01;fill-opacity:1;fill-rule:nonzero;stroke:none"
             id="path768" />
        </g>
        <g
           id="g770"
           transform="translate(124.709,399.5142)">
          <path
             d="m 0,0 c 0,-0.47 0.381,-0.851 0.851,-0.851 h 3.751 c 0.469,0 0.85,0.381 0.85,0.851 0,0.47 -0.381,0.851 -0.85,0.851 H 0.851 C 0.381,0.851 0,0.47 0,0"
             style="fill:#ffaa01;fill-opacity:1;fill-rule:nonzero;stroke:none"
             id="path772" />
        </g>
        <g
           id="g774"
           transform="translate(129.8667,404.7793)">
          <path
             d="m 0,0 v -3.37 c 0,-0.469 0.381,-0.85 0.851,-0.85 0.469,0 0.85,0.381 0.85,0.85 V 0 C 1.701,0.47 1.32,0.851 0.851,0.851 0.381,0.851 0,0.47 0,0"
             style="fill:#ffaa01;fill-opacity:1;fill-rule:nonzero;stroke:none"
             id="path776" />
        </g>
        <g
           id="g778"
           transform="translate(129.8667,397.6187)">
          <path
             d="m 0,0 v -3.37 c 0,-0.469 0.381,-0.85 0.851,-0.85 0.469,0 0.85,0.381 0.85,0.85 V 0 C 1.701,0.47 1.32,0.851 0.851,0.851 0.381,0.851 0,0.47 0,0"
             style="fill:#ffaa01;fill-opacity:1;fill-rule:nonzero;stroke:none"
             id="path780" />
        </g>
        <g
           id="g782"
           transform="translate(357.3828,373.3359)">
          <path
             d="M 0,0 C 0.114,-0.027 0.236,-0.028 0.357,0.001 1.646,0.318 2.392,0.446 2.398,0.448 2.789,0.514 3.047,0.864 2.977,1.23 2.906,1.596 2.533,1.839 2.144,1.773 2.111,1.768 1.342,1.636 -0.006,1.305 -0.39,1.21 -0.619,0.842 -0.519,0.482 -0.449,0.236 -0.245,0.058 0,0"
             style="fill:#dcedf9;fill-opacity:1;fill-rule:nonzero;stroke:none"
             id="path784" />
        </g>
        <g
           id="g786"
           transform="translate(315.7051,342.4683)">
          <path
             d="m 0,0 c -0.668,-1.144 -1.312,-2.33 -1.913,-3.526 -0.15,-0.296 -0.499,-0.443 -0.825,-0.366 -0.044,0.011 -0.088,0.026 -0.131,0.045 -0.358,0.159 -0.511,0.56 -0.342,0.896 0.613,1.221 1.271,2.431 1.953,3.599 0.19,0.326 0.624,0.445 0.974,0.267 C 0.063,0.736 0.19,0.326 0,0"
             style="fill:#dcedf9;fill-opacity:1;fill-rule:nonzero;stroke:none"
             id="path788" />
        </g>
        <g
           id="g790"
           transform="translate(312.1055,335.3145)">
          <path
             d="m 0,0 c -0.518,-1.208 -1.01,-2.458 -1.462,-3.714 -0.121,-0.336 -0.495,-0.523 -0.855,-0.438 -0.018,0.005 -0.037,0.009 -0.055,0.015 -0.375,0.119 -0.576,0.502 -0.449,0.854 0.461,1.28 0.963,2.554 1.49,3.785 0.147,0.346 0.566,0.513 0.934,0.374 C -0.03,0.737 0.147,0.345 0,0"
             style="fill:#dcedf9;fill-opacity:1;fill-rule:nonzero;stroke:none"
             id="path792" />
        </g>
        <g
           id="g794"
           transform="translate(306.0225,315.5859)">
          <path
             d="M 0,0 C -0.348,0.083 -0.581,0.397 -0.535,0.739 -0.352,2.079 -0.136,3.42 0.107,4.724 0.176,5.09 0.548,5.335 0.938,5.271 1.334,5.205 1.59,4.858 1.521,4.492 1.282,3.208 1.069,1.887 0.889,0.567 0.838,0.198 0.479,-0.062 0.086,-0.015 0.057,-0.012 0.028,-0.006 0,0"
             style="fill:#dcedf9;fill-opacity:1;fill-rule:nonzero;stroke:none"
             id="path796" />
        </g>
        <g
           id="g798"
           transform="translate(308.9033,328.6445)">
          <path
             d="m 0,0 c 0.382,-0.1 0.604,-0.472 0.498,-0.83 -0.176,-0.591 -0.346,-1.19 -0.504,-1.779 -0.183,-0.68 -0.361,-1.375 -0.526,-2.067 -0.087,-0.363 -0.471,-0.591 -0.858,-0.509 -0.006,10e-4 -0.012,0.003 -0.019,0.004 -0.375,0.09 -0.609,0.444 -0.524,0.801 0.169,0.703 0.349,1.41 0.536,2.101 0.162,0.6 0.334,1.209 0.513,1.811 0.105,0.353 0.49,0.562 0.866,0.472 C -0.012,0.003 -0.006,0.001 0,0"
             style="fill:#dcedf9;fill-opacity:1;fill-rule:nonzero;stroke:none"
             id="path800" />
        </g>
        <g
           id="g802"
           transform="translate(317.8447,345.8765)">
          <path
             d="m 0,0 c -0.17,-0.252 -0.489,-0.363 -0.782,-0.293 -0.072,0.017 -0.142,0.044 -0.207,0.084 -0.335,0.199 -0.436,0.615 -0.224,0.929 0.766,1.136 1.577,2.262 2.414,3.346 0.233,0.301 0.681,0.369 1.002,0.15 C 2.524,3.998 2.596,3.577 2.363,3.275 1.544,2.214 0.749,1.112 0,0"
             style="fill:#dcedf9;fill-opacity:1;fill-rule:nonzero;stroke:none"
             id="path804" />
        </g>
        <g
           id="g806"
           transform="translate(353.7139,372.1904)">
          <path
             d="m 0,0 c -1.309,-0.42 -2.638,-0.891 -3.948,-1.399 -0.149,-0.058 -0.305,-0.065 -0.449,-0.03 -0.213,0.05 -0.398,0.191 -0.488,0.396 -0.151,0.344 0.023,0.738 0.389,0.879 1.338,0.519 2.695,1 4.032,1.429 0.375,0.12 0.783,-0.068 0.911,-0.42 C 0.575,0.503 0.376,0.121 0,0"
             style="fill:#dcedf9;fill-opacity:1;fill-rule:nonzero;stroke:none"
             id="path808" />
        </g>
        <g
           id="g810"
           transform="translate(342.168,367.3433)">
          <path
             d="M 0,0 C -0.167,-0.087 -0.354,-0.105 -0.526,-0.065 -0.71,-0.021 -0.876,0.091 -0.977,0.26 -1.169,0.585 -1.046,0.995 -0.699,1.176 0.549,1.83 1.834,2.458 3.12,3.042 3.477,3.203 3.905,3.063 4.078,2.729 4.251,2.394 4.101,1.991 3.744,1.829 2.483,1.256 1.224,0.641 0,0"
             style="fill:#dcedf9;fill-opacity:1;fill-rule:nonzero;stroke:none"
             id="path812" />
        </g>
        <g
           id="g814"
           transform="translate(328.5605,358.0405)">
          <path
             d="m 0,0 c -0.186,-0.163 -0.438,-0.216 -0.667,-0.161 -0.129,0.03 -0.25,0.095 -0.347,0.192 C -1.285,0.303 -1.271,0.729 -0.98,0.983 0.061,1.899 1.148,2.797 2.252,3.652 2.558,3.89 3.01,3.849 3.263,3.562 3.515,3.275 3.472,2.851 3.166,2.614 2.085,1.776 1.02,0.896 0,0"
             style="fill:#dcedf9;fill-opacity:1;fill-rule:nonzero;stroke:none"
             id="path816" />
        </g>
        <g
           id="g818"
           transform="translate(335.0596,363.0796)">
          <path
             d="m 0,0 c -0.179,-0.123 -0.399,-0.156 -0.599,-0.108 -0.156,0.037 -0.3,0.124 -0.403,0.256 -0.233,0.301 -0.162,0.723 0.158,0.941 C 0.308,1.875 1.504,2.642 2.714,3.366 3.048,3.567 3.491,3.475 3.704,3.161 3.918,2.848 3.82,2.431 3.486,2.231 2.301,1.521 1.128,0.77 0,0"
             style="fill:#dcedf9;fill-opacity:1;fill-rule:nonzero;stroke:none"
             id="path820" />
        </g>
        <g
           id="g822"
           transform="translate(322.7881,352.2793)">
          <path
             d="m 0,0 c -0.183,-0.207 -0.47,-0.286 -0.729,-0.224 -0.1,0.024 -0.197,0.069 -0.282,0.134 -0.304,0.237 -0.347,0.662 -0.094,0.948 0.91,1.035 1.869,2.054 2.847,3.032 C 2.014,4.161 2.468,4.174 2.757,3.919 3.046,3.664 3.06,3.238 2.788,2.967 1.83,2.01 0.892,1.012 0,0"
             style="fill:#dcedf9;fill-opacity:1;fill-rule:nonzero;stroke:none"
             id="path824" />
        </g>
        <g
           id="g826"
           transform="translate(358.0967,377.895)">
          <path
             d="M 0,0 -1.45,11.227 36.584,5.771 Z"
             style="fill:#008eff;fill-opacity:1;fill-rule:nonzero;stroke:none"
             id="path828" />
        </g>
        <g
           id="g830"
           transform="translate(394.6807,383.668)">
          <path
             d="m 0,0 -35.136,-8.631 -0.093,-0.024 -1.765,-2.023 0.41,4.905 z"
             style="fill:#0077eb;fill-opacity:1;fill-rule:nonzero;stroke:none"
             id="path832" />
        </g>
        <g
           id="g834"
           transform="translate(357.6865,372.9897)">
          <path
             d="M 0,0 3.158,0.04 1.766,2.023 Z"
             style="fill:#0059d3;fill-opacity:1;fill-rule:nonzero;stroke:none"
             id="path836" />
        </g>
        <g
           id="g838"
           transform="translate(363.873,376.0996)">
          <path
             d="M 0,0 -4.422,-1.086 2.771,-11.327 30.808,7.567 Z"
             style="fill:#008eff;fill-opacity:1;fill-rule:nonzero;stroke:none"
             id="path840" />
        </g>
      </g>
    </g>
  </g>
</svg>
