<?xml version="1.0" encoding="UTF-8" standalone="no"?>
<svg
   fill="none"
   height="2514.0881"
   width="8000"
   viewBox="0 0 454.42053 142.32957"
   version="1.1"
   id="svg8"
   sodipodi:docname="web.svg"
   xml:space="preserve"
   inkscape:version="1.2 (dc2aedaf03, 2022-05-15)"
   xmlns:inkscape="http://www.inkscape.org/namespaces/inkscape"
   xmlns:sodipodi="http://sodipodi.sourceforge.net/DTD/sodipodi-0.dtd"
   xmlns="http://www.w3.org/2000/svg"
   xmlns:svg="http://www.w3.org/2000/svg"><defs
     id="defs12" /><sodipodi:namedview
     id="namedview10"
     pagecolor="#ffffff"
     bordercolor="#111111"
     borderopacity="1"
     inkscape:showpageshadow="0"
     inkscape:pageopacity="0"
     inkscape:pagecheckerboard="1"
     inkscape:deskcolor="#d1d1d1"
     showgrid="false"
     inkscape:zoom="0.080206171"
     inkscape:cx="3360.0906"
     inkscape:cy="1446.2728"
     inkscape:window-width="1366"
     inkscape:window-height="705"
     inkscape:window-x="-8"
     inkscape:window-y="-8"
     inkscape:window-maximized="1"
     inkscape:current-layer="svg8" /><path
     d="M 10.383,127.04521 0,0.15120714 l 124,0.255 -10.979,126.63900286 -50.553,14.638 z"
     fill="#e34f26"
     id="path2" /><path
     d="M 62.468,129.42821 V 12.236207 l 51.064,0.17 -9.106,104.851003 z"
     fill="#ef652a"
     id="path4" /><path
     d="m 99.49,41.513207 1.446,-15.49 H 22.383 l 4.34,47.49 h 54.213 l -2.126,20.255 -17.362,4.68 -17.617,-5.106 -0.936,-12.085 H 27.319 l 2.128,24.681003 32,8.936 32.255,-8.936 4.34,-48.170003 H 41.107 l -1.617,-16.255 z"
     fill="#ffffff"
     id="path6" /><g
     style="fill:none"
     id="g256"
     transform="translate(158.77065,-0.23720719)"><path
       d="M 10.383,126.892 0,0 124,0.255 113.021,126.892 62.468,141.53 Z"
       fill="#1b73ba"
       id="path241" /><path
       d="M 62.468,129.275 V 12.085 l 51.064,0.17 -9.106,104.85 z"
       fill="#1c88c7"
       id="path243" /><path
       d="M 100.851,27.064 H 22.298 l 2.128,15.318 h 37.276 l -36.68,15.745 2.127,14.808 H 81.192 L 79.234,93.615 60.936,97.19 44.341,92.935 43.064,81.19 H 27.83 l 2.042,24.426 32.681,9.106 31.32,-9.957 4,-47.745 H 64.765 L 100.85,42.042 Z"
       fill="#ffffff"
       id="path245" /></g><g
     id="g324"
     transform="matrix(0.13123859,0,0,0.13548064,315.8746,0.04380227)"><path
       fill="#f0db4f"
       d="M 0,0 H 1052 V 1052 H 0 Z"
       id="path312" /><path
       d="m 965.9,801.1 c -7.7,-48 -39,-88.3 -131.7,-125.9 -32.2,-14.8 -68.1,-25.399 -78.8,-49.8 -3.8,-14.2 -4.3,-22.2 -1.9,-30.8 6.9,-27.9 40.2,-36.6 66.6,-28.6 17,5.7 33.1,18.801 42.8,39.7 45.4,-29.399 45.3,-29.2 77,-49.399 -11.6,-18 -17.8,-26.301 -25.4,-34 -27.3,-30.5 -64.5,-46.2 -124,-45 -10.3,1.3 -20.699,2.699 -31,4 -29.699,7.5 -58,23.1 -74.6,44 -49.8,56.5 -35.6,155.399 25,196.1 59.7,44.8 147.4,55 158.6,96.9 10.9,51.3 -37.699,67.899 -86,62 -35.6,-7.4 -55.399,-25.5 -76.8,-58.4 -39.399,22.8 -39.399,22.8 -79.899,46.1 9.6,21 19.699,30.5 35.8,48.7 76.2,77.3 266.899,73.5 301.1,-43.5 1.399,-4.001 10.6,-30.801 3.199,-72.101 z m -394,-317.6 h -98.4 c 0,85 -0.399,169.4 -0.399,254.4 0,54.1 2.8,103.7 -6,118.9 -14.4,29.899 -51.7,26.2 -68.7,20.399 -17.3,-8.5 -26.1,-20.6 -36.3,-37.699 -2.8,-4.9 -4.9,-8.7 -5.601,-9 -26.699,16.3 -53.3,32.699 -80,49 13.301,27.3 32.9,51 58,66.399 37.5,22.5 87.9,29.4 140.601,17.3 34.3,-10 63.899,-30.699 79.399,-62.199 22.4,-41.3 17.6,-91.3 17.4,-146.6 0.5,-90.2 0,-180.4 0,-270.9 z"
       fill="#323330"
       id="path314" /></g></svg>
