<?xml version="1.0" encoding="UTF-8" standalone="no"?>
<svg
   width="720"
   height="720"
   viewBox="0 0 720 720"
   fill="none"
   version="1.1"
   id="svg67"
   xmlns="http://www.w3.org/2000/svg"
   xmlns:svg="http://www.w3.org/2000/svg">
  <path
     d="m 543.43508,294.44915 c -1.59694,10.99967 -8.85102,25.94532 -17.1719,38.93846 -10.49967,16.39605 -27.16295,27.87845 -46.23133,31.8654 l -83.99956,17.56627 c -13.49959,2.8232 -25.74276,9.88763 -34.93427,20.16317 l -55.07805,61.56493 c -10.35097,11.56859 -17.58567,8.81007 -17.58567,-6.70886 -0.12499,0.57541 -27.33536,70.74782 44.77448,112.33921 27.70606,15.98228 67.5906,10.23892 95.29664,-5.7412 l 146.80151,-84.67627 c 54.90134,-31.66712 93.66523,-85.24091 106.5506,-147.25192 0.50861,-2.45468 0.90299,-4.91581 1.32755,-7.3748 z"
     fill="url(#paint0_linear_2484_3243)"
     id="path2"
     style="fill:url(#paint0_linear_2484_3243);stroke-width:21.551" />
  <path
     d="m 505.36297,209.8578 c 27.70604,15.98139 39.02681,39.77377 39.02681,71.73615 0,4.33822 -0.34051,8.62473 -0.9547,12.84659 l 59.15119,25.40869 80.59881,5.27571 C 693.50588,265.39617 673.28021,203.91573 637.02272,155.0472 609.73691,118.27139 574.62592,86.357288 532.41601,62.009761 498.12612,42.231923 462.4936,29.201074 426.69513,22.050712 l -40.2229,52.089065 -12.7065,59.811953 z"
     fill="url(#paint1_linear_2484_3243)"
     id="path4"
     style="fill:url(#paint1_linear_2484_3243);stroke-width:21.551" />
  <path
     d="m 31.903347,253.69395 c -0.01504,0.0475 0.02662,0.0603 0.04231,0.0129 3.103848,-9.30791 6.995905,-19.69552 11.854807,-30.79 25.38068,-57.95941 74.291236,-96.61513 134.463096,-116.32443 60.17229,-19.708874 125.8707,-12.800468 180.70953,18.83132 l 14.79264,8.53207 52.9294,-111.901044 C 258.34903,-11.568684 86.291392,87.335491 32.117371,253.04526 c -0.02589,0.0798 -0.120061,0.35559 -0.214024,0.64869 z"
     fill="url(#paint2_linear_2484_3243)"
     id="path6"
     style="fill:url(#paint2_linear_2484_3243);stroke-width:21.551" />
  <path
     d="m 422.75991,564.43007 c -27.70604,15.98226 -61.84293,15.98226 -89.54896,0 -3.76067,-2.1702 -7.30581,-4.60762 -10.65916,-7.24978 l -48.72695,33.50113 -41.9987,67.86644 c 46.61494,38.79406 107.14755,51.26566 167.63923,44.32838 45.52231,-5.21967 90.74073,-19.63949 132.95281,-43.98788 34.28773,-19.7774 63.40106,-44.09131 87.4973,-71.49134 l -25.04018,-60.84509 -40.51815,-38.029 z"
     fill="url(#paint3_linear_2484_3243)"
     id="path8"
     style="fill:url(#paint3_linear_2484_3243);stroke-width:21.551" />
  <path
     d="M 322.55179,557.18244 C 301.20546,540.3683 288.43861,514.57815 288.43861,486.95401 V 484.19978 254.1379 c 0,-13.01037 3.83178,-15.22152 15.11161,-8.71526 -17.37231,-10.02123 -57.5004,-44.41652 -107.04887,-15.83786 -27.70626,15.98225 -50.52171,51.2592 -50.52171,83.21942 v 169.3547 c 0,63.33426 32.80416,129.40118 80.11779,171.55505 1.87149,1.66591 3.80894,3.23913 5.72871,4.83607 z"
     fill="url(#paint4_linear_2484_3243)"
     id="path10"
     style="fill:url(#paint4_linear_2484_3243);stroke-width:21.551" />
  <path
     d="m 616.51687,130.00163 c -0.0323,-0.0367 -0.0647,-0.007 -0.0323,0.0298 6.51704,7.3403 13.57501,15.90081 20.76444,25.65244 37.55057,50.93938 51.58031,115.45571 38.58072,177.37191 -13.00176,61.91404 -51.83893,115.30465 -106.67991,146.93513 l -14.79265,8.53207 65.56048,98.8741 C 733.23741,458.55402 733.5305,260.23685 616.9716,130.51111 c -0.0538,-0.062 -0.24785,-0.28167 -0.45474,-0.50947 z"
     fill="url(#paint5_linear_2484_3243)"
     id="path12"
     style="fill:url(#paint5_linear_2484_3243);stroke-width:21.551" />
  <path
     d="m 151.72623,312.79989 c -2.2e-4,-31.96238 17.0678,-61.49811 44.77405,-77.47823 3.76108,-2.17019 7.64805,-4.01711 11.61365,-5.59897 l -4.67615,-58.90917 -32.85287,-67.39921 C 113.64895,124.34987 67.594123,167.616 43.361679,223.42118 25.125539,265.41557 15.016212,311.7525 15.016001,360.44497 c 0,39.55697 6.520251,76.90065 18.222132,111.45131 l 65.264736,8.7562 53.223361,-16.04046 z"
     fill="url(#paint6_linear_2484_3243)"
     id="path14"
     style="fill:url(#paint6_linear_2484_3243);stroke-width:21.551" />
  <path
     d="m 208.11415,229.72269 c 25.24857,-10.06131 53.98907,-8.21309 77.93445,5.59897 l 2.38786,1.37713 191.7053,110.57633 c 13.44787,7.75623 12.22592,15.38961 -2.97404,18.56839 l 11.06,-2.31244 c 14.55127,-3.04301 27.84613,-10.48027 38.01391,-21.3183 17.48007,-18.63305 23.89798,-41.11296 23.89798,-60.62098 -0.002,-31.96238 -17.06844,-61.49724 -44.77449,-77.47822 L 358.56145,119.43709 C 303.66013,87.769529 237.84103,81.016935 177.64246,100.87602 c -2.38139,0.78532 -4.71236,1.67603 -7.05732,2.53829 z"
     fill="url(#paint7_linear_2484_3243)"
     id="path16"
     style="fill:url(#paint7_linear_2484_3243);stroke-width:21.551" />
  <path
     d="m 431.4299,697.65657 c 0.0496,-0.0108 0.0409,-0.0538 -0.009,-0.0431 -9.62255,1.96976 -20.5705,3.79513 -32.61754,5.13992 -62.93339,7.0192 -125.87326,-13.09872 -173.04508,-55.30647 -47.17032,-42.2056 -74.03133,-102.50332 -74.03133,-165.76645 l -2.3e-4,-17.06413 -118.487917,7.28426 c 55.027378,162.46697 226.790837,261.87987 397.522647,225.89605 0.0819,-0.0172 0.36852,-0.0755 0.66809,-0.14007 z"
     fill="url(#paint8_linear_2484_3243)"
     id="path18"
     style="fill:url(#paint8_linear_2484_3243);stroke-width:21.551" />
  <defs
     id="defs65">
    <linearGradient
       id="paint0_linear_2484_3243"
       x1="20.0599"
       y1="24.2701"
       x2="23.2075"
       y2="13.307"
       gradientUnits="userSpaceOnUse"
       gradientTransform="matrix(21.551059,0,0,21.551059,15.016001,4.7404062)">
      <stop
         stop-color="#1724C9"
         id="stop20" />
      <stop
         offset="1"
         stop-color="#1C64F2"
         id="stop22" />
    </linearGradient>
    <linearGradient
       id="paint1_linear_2484_3243"
       x1="27.309299"
       y1="10.9001"
       x2="19.029699"
       y2="2.6496201"
       gradientUnits="userSpaceOnUse"
       gradientTransform="matrix(21.551059,0,0,21.551059,15.016001,4.7404062)">
      <stop
         stop-color="#1C64F2"
         id="stop25" />
      <stop
         offset="1"
         stop-color="#0092FF"
         id="stop27" />
    </linearGradient>
    <linearGradient
       id="paint2_linear_2484_3243"
       x1="16.164499"
       y1="5.5211501"
       x2="3.67432"
       y2="6.3104"
       gradientUnits="userSpaceOnUse"
       gradientTransform="matrix(21.551059,0,0,21.551059,15.016001,4.7404062)">
      <stop
         stop-color="#0092FF"
         id="stop30" />
      <stop
         offset="1"
         stop-color="#45B2FF"
         id="stop32" />
    </linearGradient>
    <linearGradient
       id="paint3_linear_2484_3243"
       x1="15.3198"
       y1="29.1626"
       x2="26.5366"
       y2="26.1359"
       gradientUnits="userSpaceOnUse"
       gradientTransform="matrix(21.551059,0,0,21.551059,15.016001,4.7404062)">
      <stop
         stop-color="#1C64F2"
         id="stop35" />
      <stop
         offset="1"
         stop-color="#0092FF"
         id="stop37" />
    </linearGradient>
    <linearGradient
       id="paint4_linear_2484_3243"
       x1="7.2688098"
       y1="16.182699"
       x2="15.2325"
       y2="24.4347"
       gradientUnits="userSpaceOnUse"
       gradientTransform="matrix(21.551059,0,0,21.551059,15.016001,4.7404062)">
      <stop
         stop-color="#1724C9"
         id="stop40" />
      <stop
         offset="1"
         stop-color="#1C64F2"
         id="stop42" />
    </linearGradient>
    <linearGradient
       id="paint5_linear_2484_3243"
       x1="25.4505"
       y1="22.135599"
       x2="31.007"
       y2="10.9345"
       gradientUnits="userSpaceOnUse"
       gradientTransform="matrix(21.551059,0,0,21.551059,15.016001,4.7404062)">
      <stop
         stop-color="#0092FF"
         id="stop45" />
      <stop
         offset="1"
         stop-color="#45B2FF"
         id="stop47" />
    </linearGradient>
    <linearGradient
       id="paint6_linear_2484_3243"
       x1="5.3638701"
       y1="9.6306696"
       x2="2.3905399"
       y2="20.806299"
       gradientUnits="userSpaceOnUse"
       gradientTransform="matrix(21.551059,0,0,21.551059,15.016001,4.7404062)">
      <stop
         stop-color="#1C64F2"
         id="stop50" />
      <stop
         offset="1"
         stop-color="#0092FF"
         id="stop52" />
    </linearGradient>
    <linearGradient
       id="paint7_linear_2484_3243"
       x1="20.5431"
       y1="9.0991201"
       x2="9.67768"
       y2="11.8044"
       gradientUnits="userSpaceOnUse"
       gradientTransform="matrix(21.551059,0,0,21.551059,15.016001,4.7404062)">
      <stop
         stop-color="#1724C9"
         id="stop55" />
      <stop
         offset="1"
         stop-color="#1C64F2"
         id="stop57" />
    </linearGradient>
    <linearGradient
       id="paint8_linear_2484_3243"
       x1="6.4067898"
       y1="21.8566"
       x2="13.3326"
       y2="32.274502"
       gradientUnits="userSpaceOnUse"
       gradientTransform="matrix(21.551059,0,0,21.551059,15.016001,4.7404062)">
      <stop
         stop-color="#0092FF"
         id="stop60" />
      <stop
         offset="1"
         stop-color="#45B2FF"
         id="stop62" />
    </linearGradient>
  </defs>
</svg>
